<?xml version="1.0" encoding="utf-8"?>
<!-- Generator: Adobe Illustrator 19.1.0, SVG Export Plug-In . SVG Version: 6.00 Build 0)  -->
<svg version="1.1" id="レイヤー_1" xmlns="http://www.w3.org/2000/svg" xmlns:xlink="http://www.w3.org/1999/xlink" x="0px"
	 y="0px" viewBox="0 0 200 200" style="enable-background:new 0 0 200 200;" xml:space="preserve">
<style type="text/css">
	.st0{fill:#D3DBDD;}
	.st1{fill:#FFFFFF;}
	.st2{fill:#CC5425;}
	.st3{fill:#BAC4C6;}
	.st4{fill:#30241C;}
	.st5{fill:#ED4F3E;}
	.st6{fill:#030349;}
</style>
<g>
	<g>
		<rect y="40" class="st0" width="200" height="130"/>
	</g>
	<g>
		<rect x="10" y="50" class="st1" width="180" height="90"/>
	</g>
	<g>
		<g>
			<path class="st2" d="M190,45V35h-10.4c-0.8-4.6-2.6-8.8-5.1-12.4l7.4-7.4l-7.1-7.1l-7.4,7.4c-3.6-2.6-7.8-4.4-12.4-5.1V0h-10
				v10.4c-4.6,0.8-8.8,2.6-12.4,5.1l-7.4-7.4l-7.1,7.1l7.4,7.4c-2.6,3.6-4.4,7.8-5.1,12.4H110v10h10.4c0.8,4.6,2.6,8.8,5.1,12.4
				l-7.4,7.4l7.1,7.1l7.4-7.4c3.6,2.6,7.8,4.4,12.4,5.1V80h10V69.6c4.6-0.8,8.8-2.6,12.4-5.1l7.4,7.4l7.1-7.1l-7.4-7.4
				c2.6-3.6,4.4-7.8,5.1-12.4H190z M150,61.7c-12,0-21.7-9.7-21.7-21.7S138,18.3,150,18.3S171.7,28,171.7,40S162,61.7,150,61.7z"/>
		</g>
		<g>
			<circle class="st1" cx="150" cy="40" r="21.7"/>
		</g>
	</g>
	<g>
		<path class="st3" d="M126,134.3c1-3,1.7-6.1,2.1-9.3H140v-10h-11.7c-0.2-2.9-0.7-5.6-1.4-8.3l10.7-4.3l-3.7-9.3l-10.5,4.2
			c-1.5-3-3.2-5.8-5.2-8.3l7.9-7.9l-7.1-7.1l-7.7,7.7c-2.2-1.9-4.6-3.6-7.2-5.1l4.2-9.8l-9.2-3.9l-4.1,9.6c-3.2-1.1-6.5-1.8-9.9-2.2
			V60H75v10.2c-3,0.3-6,0.8-8.9,1.6l-3.8-9.4l-9.3,3.7l3.7,9.4c-3.1,1.6-6,3.5-8.6,5.7L41.1,74L34,81.1l7.2,7.2
			c-1.9,2.3-3.6,4.8-5,7.5l-9.4-4l-3.9,9.2l9.5,4.1c-1,3.2-1.6,6.6-1.9,10H20v10h10.7c0.4,2.9,1,5.8,1.8,8.6l-10.1,4l1,2.4h19.7
			c-3.6-6.2-5.6-13.3-5.6-20.9c0-23.1,18.7-41.9,41.9-41.9s41.9,18.7,41.9,41.9c0,7.6-2.1,14.8-5.6,20.9h21.1l0.4-0.9L126,134.3z"/>
	</g>
	<g>
		<rect x="70" y="190" class="st0" width="60" height="10"/>
	</g>
	<g>
		<rect x="67.5" y="193.8" class="st4" width="65" height="2.5"/>
	</g>
	<g>
		<rect x="92.7" y="153.7" class="st4" width="14.6" height="2.5"/>
	</g>
	<g>
		<path class="st0" d="M41.9,119.1c0-20.7,16.8-37.5,37.5-37.5s37.5,16.8,37.5,37.5c0,7.8-2.4,15-6.4,20.9h5.1
			c3.6-6.2,5.6-13.3,5.6-20.9c0-23.1-18.7-41.9-41.9-41.9s-41.9,18.7-41.9,41.9c0,7.6,2.1,14.8,5.6,20.9h5.1
			C44.2,134,41.9,126.8,41.9,119.1z"/>
	</g>
	<g>
		<path class="st4" d="M191.2,141.2H8.8V48.8h182.5V141.2z M11.2,138.8h177.5V51.2H11.2V138.8z"/>
	</g>
	<g>
		<path class="st4" d="M152.2,76.2c-0.7,0-1.2-0.5-1.2-1.2c0-0.7,0.5-1.3,1.2-1.3c0.4,0,0.8-0.1,1.2-0.1c0.7-0.1,1.3,0.4,1.4,1.1
			c0.1,0.7-0.4,1.3-1.1,1.4C153.1,76.1,152.7,76.2,152.2,76.2C152.2,76.2,152.2,76.2,152.2,76.2z M140.1,74.9c-0.1,0-0.2,0-0.3,0
			c-0.4-0.1-0.8-0.2-1.2-0.4c-0.7-0.2-1-0.9-0.8-1.6c0.2-0.7,0.9-1,1.6-0.8c0.4,0.1,0.7,0.2,1.1,0.3c0.7,0.2,1.1,0.9,0.9,1.5
			C141.2,74.5,140.7,74.9,140.1,74.9z M165.1,73c-0.5,0-0.9-0.3-1.1-0.7c-0.3-0.6,0-1.4,0.6-1.7c0.4-0.2,0.7-0.3,1.1-0.5
			c0.6-0.3,1.4-0.1,1.7,0.6c0.3,0.6,0.1,1.4-0.6,1.7c-0.4,0.2-0.8,0.4-1.1,0.5C165.4,72.9,165.3,73,165.1,73z M128.2,69
			c-0.3,0-0.5-0.1-0.8-0.3c-0.3-0.3-0.7-0.5-1-0.8c-0.5-0.4-0.6-1.2-0.2-1.8c0.4-0.5,1.2-0.6,1.8-0.2c0.3,0.2,0.6,0.5,0.9,0.7
			c0.6,0.4,0.7,1.2,0.2,1.8C128.9,68.8,128.6,69,128.2,69z M176,65.3c-0.3,0-0.6-0.1-0.9-0.4c-0.5-0.5-0.5-1.3,0-1.8
			c0.3-0.3,0.5-0.6,0.8-0.9c0.5-0.5,1.3-0.5,1.8-0.1c0.5,0.5,0.5,1.3,0.1,1.8c-0.3,0.3-0.6,0.6-0.9,0.9
			C176.6,65.2,176.3,65.3,176,65.3z M119.2,59.1c-0.4,0-0.8-0.2-1.1-0.6c-0.2-0.4-0.4-0.7-0.6-1.1c-0.3-0.6-0.1-1.4,0.5-1.7
			c0.6-0.3,1.4-0.1,1.7,0.5c0.2,0.3,0.4,0.7,0.6,1c0.4,0.6,0.2,1.4-0.4,1.7C119.7,59.1,119.4,59.1,119.2,59.1z M183.4,54.2
			c-0.2,0-0.3,0-0.5-0.1c-0.6-0.3-0.9-1-0.7-1.6c0.2-0.4,0.3-0.7,0.4-1.1c0.2-0.6,1-1,1.6-0.7c0.6,0.2,1,1,0.7,1.6
			c-0.2,0.4-0.3,0.8-0.5,1.2C184.3,53.9,183.8,54.2,183.4,54.2z M114.4,46.7c-0.6,0-1.1-0.4-1.2-1c-0.1-0.4-0.1-0.8-0.2-1.2
			c-0.1-0.7,0.4-1.3,1-1.4c0.7-0.1,1.3,0.4,1.4,1c0.1,0.4,0.1,0.8,0.2,1.2c0.1,0.7-0.3,1.3-1,1.5C114.5,46.7,114.4,46.7,114.4,46.7z
			 M186.2,41.2C186.2,41.2,186.2,41.2,186.2,41.2c-0.7,0-1.3-0.6-1.2-1.3c0-0.4,0-0.8,0-1.2v-0.1c0-0.7,0.6-1.2,1.2-1.2
			c0.7,0,1.2,0.6,1.2,1.2v0.1c0,0.4,0,0.8,0,1.3C187.5,40.7,186.9,41.2,186.2,41.2z M114.3,33.4c-0.1,0-0.2,0-0.2,0
			c-0.7-0.1-1.1-0.8-1-1.5c0.1-0.4,0.2-0.8,0.2-1.2c0.1-0.7,0.8-1.1,1.5-1c0.7,0.1,1.1,0.8,1,1.5c-0.1,0.4-0.2,0.8-0.2,1.2
			C115.5,33,114.9,33.4,114.3,33.4z M184.2,27.9c-0.5,0-1-0.3-1.2-0.8c-0.1-0.4-0.3-0.7-0.4-1.1c-0.3-0.6,0.1-1.4,0.7-1.6
			c0.6-0.3,1.4,0.1,1.6,0.7c0.2,0.4,0.3,0.8,0.4,1.2c0.2,0.7-0.1,1.4-0.8,1.6C184.5,27.9,184.3,27.9,184.2,27.9z M119.1,21
			c-0.2,0-0.5-0.1-0.7-0.2c-0.6-0.4-0.8-1.1-0.4-1.7c0.2-0.4,0.4-0.7,0.7-1.1c0.4-0.6,1.2-0.7,1.7-0.3c0.6,0.4,0.7,1.2,0.3,1.7
			c-0.2,0.3-0.4,0.7-0.6,1C120,20.8,119.5,21,119.1,21z M177.5,16.4c-0.4,0-0.7-0.1-0.9-0.4c-0.3-0.3-0.5-0.6-0.8-0.9
			c-0.5-0.5-0.4-1.3,0.1-1.8c0.5-0.5,1.3-0.4,1.8,0.1c0.3,0.3,0.6,0.6,0.8,0.9c0.4,0.5,0.4,1.3-0.1,1.8
			C178.1,16.3,177.8,16.4,177.5,16.4z M128.1,11.1c-0.4,0-0.8-0.2-1-0.5c-0.4-0.5-0.3-1.3,0.2-1.8c0.3-0.3,0.7-0.5,1-0.7
			c0.6-0.4,1.3-0.3,1.7,0.3c0.4,0.6,0.3,1.3-0.3,1.7c-0.3,0.2-0.6,0.5-0.9,0.7C128.6,11,128.3,11.1,128.1,11.1z M167.1,8.1
			c-0.2,0-0.4,0-0.6-0.1c-0.3-0.2-0.7-0.4-1-0.5c-0.6-0.3-0.9-1.1-0.6-1.7c0.3-0.6,1.1-0.9,1.7-0.6c0.4,0.2,0.8,0.4,1.1,0.6
			c0.6,0.3,0.8,1.1,0.5,1.7C168,7.8,167.6,8.1,167.1,8.1z M140,5.2c-0.5,0-1-0.4-1.2-0.9c-0.2-0.7,0.2-1.4,0.9-1.5
			c0.4-0.1,0.8-0.2,1.2-0.3c0.7-0.2,1.3,0.2,1.5,0.9c0.2,0.7-0.2,1.3-0.9,1.5c-0.4,0.1-0.8,0.2-1.1,0.3C140.2,5.1,140.1,5.2,140,5.2
			z M154.5,4c-0.1,0-0.1,0-0.2,0c-0.4,0-0.8-0.1-1.2-0.1c-0.7-0.1-1.2-0.7-1.1-1.4c0.1-0.7,0.7-1.2,1.4-1.1c0.4,0,0.8,0.1,1.3,0.1
			c0.7,0.1,1.2,0.7,1.1,1.4C155.6,3.6,155.1,4,154.5,4z"/>
	</g>
	<g>
		<rect x="79.8" y="170.2" class="st3" width="40.2" height="19.8"/>
	</g>
	<g>
		<path class="st4" d="M121.1,110.9H78.9V88.8h42.2V110.9z M81.4,108.4h37.2V91.2H81.4V108.4z"/>
	</g>
	<g>
		<rect x="80" y="118.8" class="st5" width="23.8" height="2.5"/>
	</g>
	<g>
		<rect x="103.8" y="118.8" class="st6" width="66.2" height="2.5"/>
	</g>
</g>
</svg>
