<?xml version="1.0" encoding="utf-8"?>
<!-- Generator: Adobe Illustrator 19.1.0, SVG Export Plug-In . SVG Version: 6.00 Build 0)  -->
<svg version="1.1" id="レイヤー_1" xmlns="http://www.w3.org/2000/svg" xmlns:xlink="http://www.w3.org/1999/xlink" x="0px"
	 y="0px" viewBox="-379 181 200 200" style="enable-background:new -379 181 200 200;" xml:space="preserve">
<style type="text/css">
	.st0{clip-path:url(#SVGID_2_);}
	.st1{fill:#BAC4C6;}
	.st2{fill:#6A70AA;}
	.st3{fill:#D3DBDD;}
	.st4{fill:#30241C;}
	.st5{fill:#CC5425;}
	.st6{fill:#050F5B;}
</style>
<g>
	<g>
		<defs>
			<rect id="SVGID_1_" x="-379" y="181" width="200" height="200"/>
		</defs>
		<clipPath id="SVGID_2_">
			<use xlink:href="#SVGID_1_"  style="overflow:visible;"/>
		</clipPath>
		<g class="st0">
			<g>
			</g>
			<g>
				<polygon class="st1" points="-213,239.6 -204.6,199.7 -221.4,199.7 				"/>
			</g>
			<g>
				<rect x="-364.4" y="300.3" class="st2" width="42" height="25.5"/>
			</g>
			<g>
				<rect x="-238.3" y="300.3" class="st2" width="16.8" height="25.5"/>
			</g>
			<g>
				<polygon class="st3" points="-297,292.2 -297,224.9 -322.4,250.4 -322.4,292.2 				"/>
			</g>
			<g>
				<polygon class="st3" points="-263.6,292 -263.6,224.8 -238.3,250.3 -238.3,292 				"/>
			</g>
			<g>
				<path class="st4" d="M-237.2,335.3h-86.2V291h86.2L-237.2,335.3L-237.2,335.3z M-321.3,333.2h82v-40.1h-82
					C-321.3,293.1-321.3,333.2-321.3,333.2z"/>
			</g>
			<g>
				<circle class="st5" cx="-280" cy="233.3" r="8.4"/>
			</g>
			<g>
				<path class="st4" d="M-275.2,267.6c-0.5,0-1-0.4-1-0.9c-0.1-0.6,0.3-1.1,0.9-1.2c0.3,0,0.7-0.1,1-0.2c0.6-0.1,1.1,0.3,1.2,0.9
					c0.1,0.6-0.3,1.1-0.9,1.2c-0.4,0.1-0.7,0.1-1.1,0.2H-275.2z M-285.9,267.5c-0.1,0-0.1,0-0.2,0c-0.4-0.1-0.7-0.1-1.1-0.2
					c-0.6-0.1-0.9-0.7-0.8-1.2c0.1-0.6,0.7-0.9,1.2-0.8c0.3,0.1,0.7,0.1,1,0.2c0.6,0.1,1,0.6,0.9,1.2
					C-284.9,267.1-285.4,267.5-285.9,267.5z M-264.1,264c-0.4,0-0.7-0.2-0.9-0.6c-0.3-0.5-0.1-1.1,0.4-1.4c0.3-0.2,0.6-0.3,0.9-0.5
					c0.5-0.3,1.1-0.1,1.4,0.4c0.3,0.5,0.1,1.1-0.4,1.4c-0.3,0.2-0.6,0.4-1,0.5C-263.8,264-264,264-264.1,264z M-296.8,263.5
					c-0.2,0-0.4,0-0.5-0.1c-0.3-0.2-0.6-0.4-0.9-0.6c-0.5-0.3-0.6-1-0.3-1.4c0.3-0.5,1-0.6,1.4-0.3c0.3,0.2,0.6,0.4,0.9,0.5
					c0.5,0.3,0.7,0.9,0.4,1.4C-296.1,263.3-296.5,263.5-296.8,263.5z M-255,256.8c-0.2,0-0.5-0.1-0.7-0.3c-0.4-0.4-0.5-1.1-0.1-1.5
					c0.2-0.3,0.5-0.5,0.7-0.8c0.4-0.4,1-0.5,1.5-0.1c0.4,0.4,0.5,1,0.1,1.5c-0.2,0.3-0.5,0.6-0.7,0.8
					C-254.4,256.7-254.7,256.8-255,256.8z M-305.8,256c-0.3,0-0.6-0.1-0.8-0.4c-0.2-0.3-0.5-0.6-0.7-0.9c-0.4-0.5-0.3-1.1,0.2-1.5
					s1.1-0.3,1.5,0.2c0.2,0.3,0.4,0.5,0.7,0.8c0.4,0.4,0.3,1.1-0.1,1.5C-305.3,255.9-305.6,256-305.8,256z M-248.8,246.9
					c-0.1,0-0.3,0-0.4-0.1c-0.5-0.2-0.8-0.8-0.6-1.4c0.1-0.3,0.3-0.6,0.4-1c0.2-0.5,0.8-0.8,1.3-0.6s0.8,0.8,0.6,1.3
					c-0.1,0.3-0.3,0.7-0.4,1C-248,246.6-248.4,246.9-248.8,246.9z M-311.7,245.9c-0.4,0-0.8-0.3-1-0.7c-0.1-0.3-0.2-0.7-0.4-1
					c-0.2-0.6,0.1-1.1,0.7-1.3s1.1,0.1,1.3,0.7c0.1,0.3,0.2,0.7,0.3,1c0.2,0.5-0.1,1.1-0.6,1.3
					C-311.4,245.9-311.5,245.9-311.7,245.9z M-246.4,235.4L-246.4,235.4c-0.6,0-1.1-0.5-1.1-1.1c0-0.3,0-0.7,0-1v-0.1
					c0-0.6,0.5-1.1,1.1-1.1s1.1,0.5,1.1,1.1v0.1c0,0.4,0,0.7,0,1.1C-245.4,235-245.9,235.4-246.4,235.4z M-313.7,234.4
					c-0.6,0-1.1-0.4-1.1-1l0,0c0-0.4,0-0.7,0-1c0-0.6,0.5-1,1.1-1c0.6,0,1,0.5,1,1.1c0,0.3,0,0.7,0,1
					C-312.6,233.9-313.1,234.4-313.7,234.4z M-248.1,223.8c-0.4,0-0.9-0.3-1-0.7c-0.1-0.3-0.2-0.7-0.3-1c-0.2-0.5,0.1-1.1,0.6-1.3
					s1.1,0.1,1.3,0.6c0.1,0.3,0.2,0.7,0.4,1c0.2,0.6-0.1,1.1-0.7,1.3C-247.9,223.7-248,223.8-248.1,223.8z M-311.7,222.9
					c-0.1,0-0.2,0-0.4-0.1c-0.5-0.2-0.8-0.8-0.6-1.3c0.1-0.3,0.3-0.7,0.4-1c0.2-0.5,0.8-0.8,1.4-0.6c0.5,0.2,0.8,0.8,0.6,1.4
					c-0.1,0.3-0.3,0.6-0.4,1C-310.9,222.6-311.3,222.9-311.7,222.9z M-253.7,213.5c-0.3,0-0.6-0.1-0.8-0.4c-0.2-0.3-0.4-0.5-0.7-0.8
					c-0.4-0.4-0.3-1.1,0.1-1.5c0.4-0.4,1.1-0.3,1.5,0.1c0.2,0.3,0.5,0.6,0.7,0.9c0.4,0.5,0.3,1.1-0.2,1.5
					C-253.2,213.4-253.4,213.5-253.7,213.5z M-305.9,212.8c-0.2,0-0.5-0.1-0.7-0.2c-0.4-0.4-0.5-1-0.1-1.5c0.2-0.3,0.5-0.6,0.7-0.8
					c0.4-0.4,1.1-0.5,1.5-0.1c0.4,0.4,0.5,1.1,0.1,1.5c-0.2,0.3-0.5,0.5-0.7,0.8C-305.3,212.6-305.6,212.8-305.9,212.8z
					 M-262.4,205.7c-0.2,0-0.4-0.1-0.6-0.2c-0.3-0.2-0.6-0.4-0.9-0.5c-0.5-0.3-0.7-0.9-0.4-1.4c0.3-0.5,0.9-0.7,1.4-0.4
					c0.3,0.2,0.6,0.4,0.9,0.6c0.5,0.3,0.6,1,0.3,1.4C-261.7,205.5-262,205.7-262.4,205.7z M-296.9,205.2c-0.4,0-0.7-0.2-0.9-0.5
					c-0.3-0.5-0.1-1.1,0.4-1.4c0.3-0.2,0.6-0.4,1-0.5c0.5-0.3,1.1-0.1,1.4,0.4s0.1,1.1-0.4,1.4c-0.3,0.2-0.6,0.3-0.9,0.5
					C-296.6,205.2-296.7,205.2-296.9,205.2z M-273.2,201.4c-0.1,0-0.1,0-0.2,0c-0.3-0.1-0.7-0.1-1-0.2c-0.6-0.1-1-0.6-0.9-1.2
					c0.1-0.6,0.6-1,1.2-0.9c0.4,0.1,0.7,0.1,1.1,0.2c0.6,0.1,0.9,0.7,0.8,1.2C-272.3,201.1-272.7,201.4-273.2,201.4z M-286,201.2
					c-0.5,0-0.9-0.4-1-0.9c-0.1-0.6,0.3-1.1,0.9-1.2c0.4-0.1,0.7-0.1,1.1-0.2c0.6-0.1,1.1,0.3,1.2,0.9c0.1,0.6-0.3,1.1-0.9,1.2
					c-0.3,0-0.7,0.1-1,0.2C-285.8,201.2-285.9,201.2-286,201.2z"/>
			</g>
			<g>
				<g>
					<rect x="-315" y="292" class="st4" width="2.1" height="4.1"/>
				</g>
				<g>
					<rect x="-306.6" y="292" class="st4" width="2.1" height="4.1"/>
				</g>
				<g>
					<rect x="-298.1" y="292" class="st4" width="2.1" height="4.1"/>
				</g>
				<g>
					<rect x="-289.6" y="292" class="st4" width="2.1" height="4.1"/>
				</g>
				<g>
					<rect x="-281.4" y="292" class="st4" width="2.1" height="4.1"/>
				</g>
				<g>
					<rect x="-273" y="292" class="st4" width="2.1" height="4.1"/>
				</g>
				<g>
					<rect x="-264.5" y="292" class="st4" width="2.1" height="4.1"/>
				</g>
				<g>
					<rect x="-256.1" y="292" class="st4" width="2.1" height="4.1"/>
				</g>
				<g>
					<rect x="-247.7" y="292" class="st4" width="2.1" height="4.1"/>
				</g>
			</g>
			<g>
				<g>
					<rect x="-230.9" y="300.3" class="st4" width="2.1" height="4.1"/>
				</g>
				<g>
					<rect x="-357.1" y="300.3" class="st4" width="2.1" height="4.1"/>
				</g>
				<g>
					<rect x="-348.6" y="300.3" class="st4" width="2.1" height="4.1"/>
				</g>
				<g>
					<rect x="-340.2" y="300.3" class="st4" width="2.1" height="4.1"/>
				</g>
				<g>
					<rect x="-331.8" y="300.3" class="st4" width="2.1" height="4.1"/>
				</g>
			</g>
			<g>
				<polygon class="st5" points="-347.6,327.9 -356,367.9 -339.2,367.9 				"/>
			</g>
			<g>
				<polygon class="st6" points="-204.6,334.2 -204.6,359.4 -229.9,359.4 -229.9,367.6 -204.6,367.6 -204.6,367.9 -196.2,367.9 
					-196.2,367.6 -196.2,359.4 -196.2,334.2 				"/>
			</g>
		</g>
	</g>
</g>
</svg>
