<?xml version="1.0" encoding="utf-8"?>
<!-- Generator: Adobe Illustrator 19.1.0, SVG Export Plug-In . SVG Version: 6.00 Build 0)  -->
<svg version="1.1" id="レイヤー_1" xmlns="http://www.w3.org/2000/svg" xmlns:xlink="http://www.w3.org/1999/xlink" x="0px"
	 y="0px" viewBox="0 0 240 200" style="enable-background:new 0 0 240 200;" xml:space="preserve">
<style type="text/css">
	.st0{display:none;fill:none;}
	.st1{fill:#ECECEB;}
	.st2{fill:#C14E66;}
	.st3{fill:#158D99;}
	.st4{fill:#4C5A7F;}
	.st5{fill:#EC9B2F;}
	.st6{fill:#75756E;}
	.st7{fill:none;}
</style>
<rect id="_x3C_スライス_x3E__2_" x="-132.3" y="-204.3" class="st0" width="297.1" height="325.5"/>
<g>
	<path class="st1" d="M229.6,26.6c0.9,0.1,1.8,0.3,2.7,0.4c0.3,0.1,0.5,0.2,0.9,0.4c2,1.9,1.4,4.4,1.4,6.8c0.1,12.4,0,24.8,0,37.3
		c0,38.5,0,76.9,0,115.4c0,12.1,0,12.1-11.9,12.1c-52.4,0-104.8,0-157.2,0c-3,0-6.1,0.1-9.1,0c-3.4-0.1-6.6,0.6-9.2,3.1
		c-2.2-2.2-4.6-3.1-7.5-3c-6.7,0.1-13.3-0.1-20,0c-2.9,0-5.5-0.5-6.7-3.5c-1.1-2.8-4-2.4-6-3.6c-1.2-2.3-0.8-4.7-0.8-7.1
		c0-48.5,0-96.9,0-145.4c0-4.5,0.4-9.1,0.6-13.6c1.7-1.3,3.4-2.5,5.7-2.5c9.4,0,18.8-0.1,28.2,0c4,0.1,5.3,1.5,6.3,5.3
		c0.5,2-0.2,4.3,2.8,6.4c2.1,0,5.1,0,8.1,0c47.2,0,94.5,0,141.7,0c3,0,6-0.3,9-0.4c6.8,0.7,13.6,1.1,19.9-0.2
		C230.4,31.3,230.1,29,229.6,26.6z M117.4,142.5c0-3.8,0-7.1,0-10.4c-0.1-16-0.2-32.1-0.3-48.1c0-0.3-0.2-0.6-0.3-0.8
		c-0.2-0.2-0.4-0.4-0.6-0.6c-8.1-1.1-48.7-1.5-78.9-0.8c-1.8,0-3.7-0.2-6.1,1.6c-0.9,9.2-0.4,19.2-0.3,29.1
		c0.1,10.1-0.9,20.4,0.7,30.3C40.6,143.9,109,143.8,117.4,142.5z M31.6,77.5c3.7,1.1,7.1,0.8,10.4,0.8c29.7,0,59.4,0,89.1,0
		c21.8,0,43.6,0,65.5,0c3.2,0,6.6,0.7,10.4-1.6c-0.4-8.7,1-17.7-0.8-26.7c-3.6-1.3-7-0.8-10.2-0.8c-51.2,0-102.5,0-153.7,0
		c-1.8,0-3.6,0-5.5,0c-1.8,0.1-3.7-0.1-5,1.5C30.4,57.5,30.3,68.4,31.6,77.5z M161.2,175.5c1.7-7.8,1.6-21.4-0.1-28.1
		c-1.1-0.2-2.3-0.5-3.4-0.5c-25.7,0-51.4,0-77.1,0c-1.5,0-3-0.1-4.1,1.3c-1.5,11.2-1.1,22,1,27.9c26.7,0,53.6,0,80.5,0
		C159.1,176.1,160.2,175.7,161.2,175.5z M121.2,111.1c10.3,0,19.6,0,29,0c9.4,0,18.8,0.1,28.1,0c9.3-0.2,18.6,0.8,27.7-0.6
		c1.6-10.2,1.4-22.2-0.6-28.3c-1-0.1-2.2-0.4-3.4-0.4c-26.3,0.1-52.6,0.1-79,0.2c-0.3,0-0.6,0.2-0.8,0.3c-0.3,0.2-0.5,0.4-1.3,1.1
		C120.6,91.9,120.4,100.8,121.2,111.1z M166.2,175.2c10.3,1.5,33.9,1.2,40.1-0.4c0.2-0.8,0.5-1.7,0.5-2.5c0-17.9,0.1-35.7,0-53.6
		c0-1.5-0.1-3-1.6-4c-12-0.9-32-0.7-38.7,0.5c-1.1,1.2-1.1,2.7-1.1,4.2C164.9,133,165.3,168.5,166.2,175.2z M31.5,175.1
		c8.4,1.5,33,1.4,39.8-0.1c1.7-8.8,1.4-21.5-0.5-27.4c-12.2-1.5-33.6-1-40,1.1C31.1,157.4,29.8,166.3,31.5,175.1z M25.1,31.1
		c3.3,0,6.6,0.1,9.8,0c1.2,0,2.3-0.5,2.4-2c0.1-1.5-0.9-2.1-2.2-2.2c-3.9-0.2-7.8-0.3-11.6-0.2c-2.7,0-5.3,0.2-8,0.6
		c-0.8,0.1-1.5,1-1.1,2.1c0.2,0.5,0.5,1.1,1,1.3C18.6,31.9,21.9,31,25.1,31.1z"/>
	<path class="st2" d="M208.7,34.3c-3,0.1-6,0.4-9,0.4c-47.2,0-94.5,0-141.7,0c-3,0-6,0-8.1,0c-3-2-2.2-4.4-2.8-6.4
		c-1-3.8-2.3-5.2-6.3-5.3c-9.4-0.2-18.8-0.1-28.2,0c-2.3,0-4,1.3-5.7,2.5c-0.3-2.1-0.6-4.2,0.4-6.3c1.4-1.4,3.3-1.2,5.1-1.3
		c0.9,0,1.8,0,2.7,0c64.4,0,128.9,0,193.3,0C208.5,23.5,208.6,28.9,208.7,34.3z"/>
	<path class="st3" d="M208.7,34.3c-0.1-5.4-0.2-10.8-0.3-16.2c4.1,0,8.2-0.2,12.3-0.1c6,0.2,6.4,0.7,8.3,6.9
		c0.2,0.6,0.3,1.1,0.5,1.7c0.5,2.4,0.8,4.7-1,7.5C222.3,35.4,215.5,35,208.7,34.3z M215.7,29.6c1.2,1.3,2.3,0.2,3.4,0.3
		c1.1,0.1,2.2,0.8,3.5-0.1c-0.1-2-0.2-4.2-0.4-7.4c-2.4,1.9-4.5,0.1-6.6,1.5C215.7,25.8,215.7,27.8,215.7,29.6z"/>
	<path class="st4" d="M117.4,142.5c-8.3,1.3-76.7,1.4-85.9,0.2c-1.6-10-0.6-20.2-0.7-30.3c-0.1-9.9-0.6-19.8,0.3-29.1
		c2.4-1.8,4.3-1.5,6.1-1.6c30.2-0.7,70.8-0.3,78.9,0.8c0.2,0.2,0.4,0.4,0.6,0.6c0.2,0.2,0.3,0.5,0.3,0.8c0.1,16,0.2,32.1,0.3,48.1
		C117.4,135.4,117.4,138.7,117.4,142.5z"/>
	<path class="st5" d="M31.6,77.5c-1.3-9.1-1.2-20,0.1-26.8c1.3-1.6,3.2-1.4,5-1.5c1.8-0.1,3.6,0,5.5,0c51.2,0,102.5,0,153.7,0
		c3.3,0,6.6-0.5,10.2,0.8c1.8,9,0.4,18,0.8,26.7c-3.7,2.3-7.2,1.6-10.4,1.6c-21.8,0.1-43.6,0-65.5,0c-29.7,0-59.4,0-89.1,0
		C38.7,78.3,35.4,78.7,31.6,77.5z"/>
	<path class="st2" d="M161.2,175.5c-1,0.2-2.2,0.6-3.3,0.6c-26.9,0-53.8,0-80.5,0c-2.1-5.9-2.4-16.7-1-27.9c1.1-1.4,2.6-1.3,4.1-1.3
		c25.7,0,51.4,0,77.1,0c1.2,0,2.3,0.3,3.4,0.5C162.8,154.2,162.9,167.7,161.2,175.5z"/>
	<path class="st2" d="M121.2,111.1c-0.8-10.2-0.6-19.2-0.3-27.6c0.8-0.7,1.1-0.9,1.3-1.1c0.2-0.2,0.5-0.3,0.8-0.3
		c26.3-0.1,52.6-0.2,79-0.2c1.2,0,2.3,0.3,3.4,0.4c2,6.1,2.2,18.1,0.6,28.3c-9.1,1.4-18.4,0.4-27.7,0.6c-9.4,0.2-18.8,0-28.1,0
		C140.9,111.1,131.5,111.1,121.2,111.1z"/>
	<path class="st3" d="M166.2,175.2c-0.9-6.8-1.4-42.2-0.8-55.7c0.1-1.5,0-3,1.1-4.2c6.7-1.2,26.7-1.4,38.7-0.5
		c1.5,0.9,1.6,2.5,1.6,4c0,17.9,0,35.7,0,53.6c0,0.9-0.4,1.7-0.5,2.5C200.2,176.5,176.5,176.7,166.2,175.2z"/>
	<path class="st5" d="M31.5,175.1c-1.7-8.8-0.3-17.7-0.8-26.4c6.5-2.1,27.8-2.6,40-1.1c1.9,5.8,2.2,18.6,0.5,27.4
		C64.5,176.5,39.8,176.6,31.5,175.1z"/>
	<path class="st6" d="M25.1,31.1c-3.2-0.1-6.6,0.8-9.7-0.5c-0.4-0.2-0.8-0.8-1-1.3c-0.3-1,0.4-2,1.1-2.1c2.6-0.3,5.3-0.5,8-0.6
		c3.9,0,7.8,0.1,11.6,0.2c1.2,0,2.3,0.7,2.2,2.2c-0.1,1.5-1.2,2-2.4,2C31.7,31.1,28.4,31.1,25.1,31.1z"/>
	<path class="st1" d="M215.7,29.6c0-1.8,0-3.8,0-5.7c2.1-1.4,4.2,0.5,6.6-1.5c0.2,3.2,0.3,5.4,0.4,7.4c-1.3,0.9-2.4,0.2-3.5,0.1
		C218,29.8,216.9,30.9,215.7,29.6z"/>
</g>
<rect id="_x3C_スライス_x3E_" x="-15" y="2" class="st7" width="267.1" height="198.9"/>
</svg>
