<?xml version="1.0" encoding="utf-8"?>
<!-- Generator: Adobe Illustrator 19.1.0, SVG Export Plug-In . SVG Version: 6.00 Build 0)  -->
<svg version="1.1" id="レイヤー_1" xmlns="http://www.w3.org/2000/svg" xmlns:xlink="http://www.w3.org/1999/xlink" x="0px"
	 y="0px" viewBox="0 0 240 200" style="enable-background:new 0 0 240 200;" xml:space="preserve">
<style type="text/css">
	.st0{display:none;fill:none;}
	.st1{fill:#C14E66;}
	.st2{fill:#75756E;}
	.st3{fill:#EC9B2F;}
	.st4{fill:#ECECEB;}
	.st5{fill:#158D99;}
	.st6{fill:#7DB628;}
</style>
<rect id="_x3C_スライス_x3E__2_" x="-132.3" y="-204.3" class="st0" width="297.1" height="325.5"/>
<g>
	<path class="st1" d="M226.4,97.6c1.1-10.7,0.5-21.2-3.3-31.3c-8-21.5-23.3-34.9-45.5-40.4c-3.1-0.8-6.3-1.5-9.6-0.3
		c-2.5,2.8-2,5.9-0.9,9.1c1.9,5.2,4.1,10.4,6,15.7c0.9,2.4,2.5,4.7,1.7,7.5c-1.3,1.1-2.8,1-4.2,0.8c-9.8-1.1-42-8-47.2-10.1
		c-0.7-1.7,0.5-2.8,1.4-3.8c4.4-4.8,8.7-9.6,13.2-14.2c2.6-2.6,4.2-5.5,4.8-9.2c0.7-4.1,1.5-8.1,2.4-12.1c1.7-7.1,5.5-9.7,12.7-9
		c2.4,0.2,4.6,0.9,6.6,2.2c3.2,2.1,5.1,4.9,4.8,8.8c-0.1,2-1,4,0.1,6.1c2.5,1.7,5.5,1.7,8.3,2.3c30.6,6.5,52.4,31.1,54.9,62.2
		c0.5,6.7,0.4,13.5,0.4,20.3c0,13.5,0,27.1,0,40.6c0,4.2-0.1,8.3,4.7,10.4c0.9,0.4,1.6,1.8,1.8,2.8c0.6,3.5,0.7,6.9-0.4,10.2
		c-6.8,1.6-32.8,1.9-44.3,0.7c0.3-2.8-0.5-5.8,1.4-8.8c1-0.1,2.1-0.3,3.2-0.2c5.7,0.5,9.4-2.2,11.9-7c0.7-1.3,1.3-2.6,2-3.9
		c4,0.5,8,0.9,12,1.4c0.5-1.1,1.1-1.9,1.1-2.7c0.3-14.3,0.6-28.5-0.1-42.8C226.4,101.1,226.4,99.3,226.4,97.6z"/>
	<path class="st2" d="M72.4,166.9c-7.1,0-14.1,0.2-21.2,0.1c-7.1-0.1-7.1-0.1-11.6-6.1c-2.3-1.2-4.5,0.2-6.8,0.4
		c-5.5,0.5-9.8-1.2-12.3-6.5c-0.5-1-1.1-2.1-1.5-2.8c-2.5-1.6-4.8-1-7.1-0.6c-7.1,1.3-8.1,2.6-8.6,9.8c-0.1,1.1-0.2,2.2-0.3,3.1
		c-1.4,0.8-2.1,0.2-2.3-0.7c-2.2-9.1,0.3-13.2,9.4-15.2c4-0.9,7.7-2.2,11.5-3.9c6.4-3,13.6-3.3,20.7-3.1c1.1,2,2.4,2.3,4.2,0.8
		c1.3-1.2,2.6-2.3,3.9-3.5c4.6,0.2,9.2-0.5,13.7-1.2c3.6-0.5,5.5,0.9,6.3,4.3c0.5,2.2,0.7,4.5,1.1,6.8c-0.4,1.6-1.4,3.3,0.2,5
		c0.7,0.2,1.5,0.7,2.3,0.7c26.7,0.1,53.3,0.1,80,0.2c0.2,4.1,0.4,8.3,0.7,12.4c-2.1,5.8-4.2,11.6-6.4,17.4c-0.4,1-1.2,2-2.9,0.8
		c0.4-6,4.7-11.1,5-17.1c-1.4-1.4-2.8-1.5-4.3-1.1c-1.2,0.4-1.9,1.3-2.4,2.4c-1.5,3.8-2.9,7.7-4.5,11.5c-0.4,1-1,2.1-3.1,1.2
		c-0.2-5,4.4-9.3,3.5-14.5c-3-1.4-5.1-1-6.3,1.6c-1.2,2.7-2.1,5.5-3.3,8.2c-0.4,1-0.8,2.3-2.7,1.9c-1.7-4.1,3.2-7.4,1.6-11.5
		c-0.9-0.9-2-1.1-3.2-1c-1.6,0.2-2.5,1.4-3.1,2.8c-1,2.3-1.4,4.9-3.9,6.9c-2.6-3.2,2-6.6-1.6-9.9C102.9,166.6,87.7,165.9,72.4,166.9
		z M49.3,153.5c-0.5-1.7-1-3.3-1.5-5c-0.4-1.4-1.5-1.7-2.8-1.4c-1.4,0.3-1.7,1.4-1.5,2.7c0.1,0.6,0.2,1.1,0.3,1.7
		c-0.4,1.9-1.4,4,1,5.3c1.9,1,3.8,0.7,5.5-0.9c0.8-0.8,1.8-1.4,2.7-2.1c2.5,0,5,0.1,7.6,0c3.3-0.2,6.1-1.3,6.9-5
		c0.2-1.1,0.5-2.3,0.4-3.4c-0.3-4-1.6-5.3-5.4-4.9c-2.9,0.3-5.7,0.9-8.5,1.4c-2.8,0.5-2.8,2.4-2.4,4.5c0.4,2.4,0.8,4.8,1.2,7.2
		C51.6,153.6,50.5,153.5,49.3,153.5z M38.2,144.7c-3.7,0-7.4,0.5-11.2,1.1c-3.9,0.6-5,2.5-4,6.2c1.3,4.7,4.3,7,9,6.5
		c3.1-0.3,5.8-1.3,7.2-4.3C40.8,151.1,40.5,148,38.2,144.7z"/>
	<path class="st3" d="M154.9,166.9c-0.2-4.1-0.4-8.3-0.7-12.4c0-2,0-4,0-6c0.3-10.3,0.5-20.6,0.8-31c2.5-0.4,4.4-0.8,6.4-1.1
		c2.8,0.6,5.5,0.4,8.3,0c5,0.2,9.9,0.3,14.9,0.5c2.9,0.1,5.9-0.4,8.4,0.9c2.7,2.2,0.9,5.8,3.3,8.4c0.9,0,2,0,3.1,0
		c7.3,0,11.6,3.2,13,10.2c0.7,3.4,0.7,7,0.9,10.5c-0.7,1.3-1.3,2.6-2,3.9c-2.5,4.8-6.2,7.6-11.9,7c-1.1-0.1-2.2,0.2-3.2,0.2
		c-1.9,2.9-1.1,5.9-1.4,8.8c-6.9,1.8-14,0.1-21,0.8c-2.9-0.6-5.8-0.5-8.7-0.2c-1.1,0-2.3,0-3.4,0
		C159.4,167.3,157.2,167.1,154.9,166.9z M207,146.1c2.7-4,1.4-7.9-0.4-11.6c-0.9-1.9-2.3-3.4-4.7-3.4c-2.3,0-3.8,1.4-4.8,3.3
		c-2.2,3.8-2.3,7.8-1.2,11.9c0.4,2,1.3,3.8,2.9,5.1c2.3,2,4.8,1.8,6.7-0.5C206.6,149.5,206.9,147.9,207,146.1z M171.5,131.7
		c-0.6,3.5-0.7,5.2-1.2,6.9c-0.6,2-4,1.3-4.2,4.9c5.7-1,5,4.1,6.6,7.6c1.5-1.6,2.6-2.8,3.7-3.9c2.1-1,4.2,0.9,6.1-0.4
		c0.6-2.3-2.1-3.3-2.1-5.5c0-1.9,3-3.3,0.7-5.7C177.4,138.1,174.7,135.9,171.5,131.7z"/>
	<path class="st4" d="M154.9,166.9c2.3,0.2,4.5,0.4,6.8,0.6c-2.3,6.3-4.5,12.6-6.7,18.9c-0.4,1-0.6,2.2,0.6,2.9
		c0.5-0.2,1.3-0.3,1.5-0.7c3.2-6.8,5.8-13.9,8.1-21.1c2.9-0.3,5.8-0.5,8.7,0.2c-4,10.7-8,21.5-11.7,31.6c-2.6,1.5-4.1,0.5-5.8-0.1
		c-15.2-5.7-30.3-11.5-45.5-16.9c-10-3.6-19.7-7.6-29.6-11.3c-3-1.1-5.9-2.6-8.9-3.9c15.3-1,30.5-0.4,45-0.4c3.6,3.3-1,6.6,1.6,9.9
		c2.5-1.9,2.9-4.6,3.9-6.9c0.6-1.4,1.5-2.5,3.1-2.8c1.2-0.2,2.3,0,3.2,1c1.5,4.1-3.3,7.4-1.6,11.5c1.9,0.4,2.3-0.9,2.7-1.9
		c1.2-2.7,2-5.5,3.3-8.2c1.2-2.6,3.3-3,6.3-1.6c0.9,5.2-3.6,9.5-3.5,14.5c2,0.9,2.6-0.2,3.1-1.2c1.6-3.8,3-7.7,4.5-11.5
		c0.4-1.1,1.1-2.1,2.4-2.4c1.5-0.4,2.9-0.3,4.3,1.1c-0.3,6-4.5,11.1-5,17.1c1.8,1.2,2.6,0.1,2.9-0.8
		C150.7,178.5,152.8,172.7,154.9,166.9z"/>
	<path class="st4" d="M169.7,116.4c-2.8,0.4-5.5,0.6-8.3,0c0-8.8,0-17.7,0-26.5c0-2.1,0.1-4.1-0.1-6.2c-0.3-3-2.1-4.9-5-5.2
		c-2-0.2-4.1-0.2-6.2-0.2c-17.9,0-35.9,0-53.8,0c-12.1,0-24.2-0.1-36.2,0c-7.9,0.1-9.3,1.4-9.5,9.1c-0.1,1.8,0,3.5,0,5.3
		c0,15.3,0,30.6,0,46c-1.3,1.2-2.6,2.3-3.9,3.5c-1.7,1.5-3.1,1.2-4.2-0.8c0.1-18.2,0.1-36.5,0.2-54.7c0-2.4-0.1-4.7,0.1-7.1
		c0.4-4.4,2.2-6.1,6.8-6.5c1.8-0.1,3.5-0.1,5.3-0.1c34.1,0,68.3,0,102.4,0c2.1,0,4.1-0.1,6.2,0.1c3.7,0.4,5.8,2.4,6.2,6.2
		c0.2,1.7,0.1,3.5,0.1,5.3c0.1,5.6,0.2,11.2,0.3,16.8c0,2.3,0,4.5,0,6.8C170,110.9,169.9,113.7,169.7,116.4z"/>
	<path class="st5" d="M50.5,138.7c0-15.3,0-30.6,0-46c0-1.8,0-3.5,0-5.3c0.2-7.8,1.5-9.1,9.5-9.1c12.1-0.1,24.2,0,36.2,0
		c17.9,0,35.9,0,53.8,0c2.1,0,4.1-0.1,6.2,0.2c2.9,0.3,4.7,2.2,5,5.2c0.2,2,0.1,4.1,0.1,6.2c0,8.8,0,17.7,0,26.5
		c-2,0.3-3.9,0.7-6.4,1.1c-0.3,10.4-0.5,20.7-0.8,31c-27.5,0-55.1,0-82.6,0.1c-0.3-2.3-0.5-4.6-1.1-6.8c-0.8-3.4-2.8-4.8-6.3-4.3
		C59.7,138.2,55.1,139,50.5,138.7z M149.5,134.1c-3.4-2.9-6.1-2.3-8.6-2.3c-23.5,0-46.9,0-70.4,0c-2,0-4.1,0.1-6.1,0.4
		c-1,0.1-1.3,1-1.3,2c1.1,1.2,2.6,1,4,1C89.7,135.9,141,135.4,149.5,134.1z M61.3,125.6c3.9,2.6,6.5,2.1,8.9,2.1
		c23.5,0,47.1,0,70.6,0c2,0,4.1-0.1,6.1-0.3c1-0.1,1.3-0.9,1.2-1.9c-1-1.3-2.5-1.1-4-1.1C119.8,123.4,69.9,124,61.3,125.6z
		 M148,117.6c-5.8-0.8-69.9-1.4-81.9-0.7c-1.1,0.1-2.3,0-2.9,1.2c0.2,0.5,0.4,1.4,0.6,1.4c27.5,1.6,55.1,0.6,82.7,0.5
		C147.2,120,148.2,119.6,148,117.6z M147.9,87.8c-0.4-0.3-0.9-0.8-1.3-0.9c-27-0.1-54-0.1-81-0.1c-0.8,0-1.6,0.5-2.3,0.7
		c0,1.1,0.4,1.9,1.3,2.1c2,0.2,4.1,0.3,6.1,0.3c23.2,0,46.4,0,69.6,0c2.1,0,4.1-0.1,6.1-0.3C147.3,89.5,148,88.8,147.9,87.8z
		 M63.3,104.3c1,0.2,2.3,0.6,3.6,0.7c20.5,0.9,54.2,0.3,60.4-0.9c-0.1-0.5-0.2-1.5-0.4-1.5c-20.8-1.8-41.6-0.7-62.4-0.6
		C63.9,101.9,63,102.6,63.3,104.3z M63.3,94.9C63,96.5,63.2,97,64,97.1c15,1,29.9,0.7,44.9,0.1c0.4,0,0.8-0.6,1.2-1
		c0.1-0.2,0.1-0.6,0.1-0.9c-0.4-0.3-0.8-0.9-1.3-0.9c-13.5-0.1-27.1-0.2-40.6-0.3C66.5,94.1,64.7,94,63.3,94.9z M63,110.7
		c1.4,2.4,3.6,1.7,5.5,1.7c10.9,0.1,21.8,0,32.7,0c13.8,0,27.7,0,41.5,0c1.8,0,4,0.7,5.3-1.8c-0.8-0.4-1.6-1.1-2.4-1.1
		c-26.8,0-53.6,0-80.4,0C64.6,109.6,63.8,110.3,63,110.7z"/>
	<path class="st4" d="M71.7,148.6c27.5,0,55.1,0,82.6-0.1c0,2,0,4,0,6c-26.7-0.1-53.3-0.1-80-0.2c-0.8,0-1.7-0.5-2.3-0.7
		C70.3,151.9,71.3,150.2,71.7,148.6z"/>
	<path class="st6" d="M38.2,144.7c2.3,3.3,2.7,6.4,1.1,9.5c-1.5,3-4.2,4-7.2,4.3c-4.7,0.5-7.8-1.7-9-6.5c-1-3.7,0.1-5.6,4-6.2
		C30.7,145.2,34.5,144.7,38.2,144.7z"/>
	<path class="st5" d="M51.6,146.4c-0.4-2.2-0.4-4.1,2.4-4.5c2.8-0.5,5.7-1.1,8.5-1.4c3.8-0.4,5.1,0.9,5.4,4.9
		c0.1,1.1-0.3,2.3-0.4,3.4c-2.9-0.1-5.7-0.3-8.6-0.3C56.2,148.5,53.8,147.9,51.6,146.4z"/>
	<path class="st4" d="M51.6,146.4c2.2,1.5,4.6,2.1,7.3,2.1c2.9,0,5.7,0.2,8.6,0.3c-0.8,3.7-3.6,4.8-6.9,5c-2.5,0.1-5,0-7.6,0
		c0,0-0.1-0.2-0.1-0.2C52.4,151.2,52,148.8,51.6,146.4z"/>
	<path class="st4" d="M43.8,151.5c-0.1-0.6-0.2-1.1-0.3-1.7c-0.2-1.3,0-2.3,1.5-2.7c1.2-0.3,2.3,0,2.8,1.4c0.5,1.7,1,3.3,1.5,5
		C47.3,153.3,45.4,152.8,43.8,151.5z"/>
	<path class="st6" d="M43.8,151.5c1.6,1.3,3.4,1.8,5.4,2c1.2,0,2.4,0.1,3.6,0.1c0,0,0.2,0.2,0.2,0.2c-0.9,0.7-1.9,1.3-2.7,2.1
		c-1.7,1.6-3.6,1.9-5.5,0.9C42.4,155.6,43.4,153.4,43.8,151.5z"/>
	<path class="st4" d="M171.5,131.7c3.2,4.2,5.9,6.3,9.6,3.9c2.3,2.4-0.7,3.8-0.7,5.7c0,2.2,2.6,3.2,2.1,5.5c-2,1.3-4-0.7-6.1,0.4
		c-1,1.1-2.2,2.3-3.7,3.9c-1.6-3.5-0.9-8.6-6.6-7.6c0.2-3.5,3.6-2.9,4.2-4.9C170.9,137,171,135.2,171.5,131.7z"/>
	<path class="st2" d="M165.1,167.5c-2.3,7.2-4.8,14.3-8.1,21.1c-0.2,0.4-1,0.5-1.5,0.7c-1.3-0.7-1-1.9-0.6-2.9
		c2.2-6.3,4.5-12.6,6.7-18.9C162.8,167.5,164,167.5,165.1,167.5z"/>
	<path class="st4" d="M149.5,134.1c-8.5,1.3-59.8,1.8-82.3,1c-1.4,0-2.9,0.2-4-1c0-1,0.3-1.8,1.3-2c2-0.2,4.1-0.4,6.1-0.4
		c23.5,0,46.9,0,70.4,0C143.4,131.8,146.1,131.2,149.5,134.1z"/>
	<path class="st4" d="M61.3,125.6c8.6-1.6,58.5-2.2,82.9-1.3c1.4,0.1,2.9-0.2,4,1.1c0.2,1-0.2,1.8-1.2,1.9c-2,0.2-4.1,0.3-6.1,0.3
		c-23.5,0-47.1,0-70.6,0C67.7,127.7,65.1,128.2,61.3,125.6z"/>
	<path class="st4" d="M148,117.6c0.2,1.9-0.8,2.4-1.5,2.4c-27.6,0.1-55.1,1.1-82.7-0.5c-0.2,0-0.4-0.9-0.6-1.4
		c0.6-1.2,1.9-1.2,2.9-1.2C78.1,116.2,142.1,116.8,148,117.6z"/>
	<path class="st4" d="M147.9,87.8c0.1,1-0.5,1.8-1.4,1.9c-2,0.2-4.1,0.3-6.1,0.3c-23.2,0-46.4,0-69.6,0c-2,0-4.1-0.1-6.1-0.3
		c-1-0.1-1.3-0.9-1.3-2.1c0.7-0.2,1.5-0.7,2.3-0.7c27,0,54,0,81,0.1C147,86.9,147.5,87.5,147.9,87.8z"/>
	<path class="st4" d="M63.3,104.3c-0.3-1.7,0.6-2.4,1.3-2.4c20.8-0.1,41.6-1.2,62.4,0.6c0.2,0,0.3,1,0.4,1.5
		c-6.3,1.3-40,1.8-60.4,0.9C65.6,104.9,64.3,104.5,63.3,104.3z"/>
	<path class="st4" d="M63.3,94.9c1.4-0.9,3.2-0.7,5-0.7c13.5,0.1,27.1,0.2,40.6,0.3c0.4,0,0.8,0.6,1.3,0.9c0,0.3,0.1,0.7-0.1,0.9
		c-0.3,0.4-0.8,1-1.2,1c-15,0.5-29.9,0.8-44.9-0.1C63.2,97,63,96.5,63.3,94.9z"/>
	<path class="st4" d="M63,110.7c0.8-0.4,1.5-1.1,2.3-1.1c26.8-0.1,53.6-0.1,80.4,0c0.8,0,1.5,0.7,2.4,1.1c-1.3,2.5-3.5,1.8-5.3,1.8
		c-13.8,0.1-27.7,0-41.5,0c-10.9,0-21.8,0-32.7,0C66.7,112.4,64.4,113.1,63,110.7z"/>
</g>
</svg>
