<?xml version="1.0" encoding="utf-8"?>
<!-- Generator: Adobe Illustrator 19.1.0, SVG Export Plug-In . SVG Version: 6.00 Build 0)  -->
<svg version="1.1" id="レイヤー_1" xmlns="http://www.w3.org/2000/svg" xmlns:xlink="http://www.w3.org/1999/xlink" x="0px"
	 y="0px" viewBox="0 0 196 200" style="enable-background:new 0 0 196 200;" xml:space="preserve">
<style type="text/css">
	.st0{fill:#EC9B2F;}
	.st1{fill:#ECECEB;}
	.st2{fill:#158D99;}
	.st3{fill:#C14E66;}
	.st4{fill:#75756E;}
	.st5{display:none;fill:none;}
</style>
<g>
	<path class="st0" d="M142.7,101.4c-2.9,3.1-5.8,6.1-8.6,9.3c-7.1,8.2-11.4,17.7-12.1,28.6c-0.1,1.3-0.3,2.6-0.4,3.9
		c-6.3-0.5-12.6,0.8-18.5-0.9c-1.5-2.4-1.1-4.6-1.1-6.7c-0.1-6.6,0-13.3,0-19.9c0-2.6,0.3-5.3-0.8-7.9c1.3-2.3,2.5-4.6,4-6.8
		c5.7-8.8,11.5-17.6,17.2-26.4c1.1-1.7,2.3-3.6,2.9-5.5c0.6-1.7-0.9-2.1-2.3-2.2c-1.7-2.3-3.4-4.8-5.2-7c-2.7-3.3-6-3.3-8.8,0
		c-1.4,1.6-2.4,3.5-3.8,5.1c-1.1,1.3-3.1,1.4-4.2,0c-1.5-1.8-2.7-3.9-4.3-5.7c-2.3-2.5-5.4-2.5-7.7,0c-1.1,1.1-1.9,2.6-2.8,3.8
		c-0.9,1.3-1.8,2.6-3.6,2.9c-3-0.6-3.7-3.5-5.3-5.5c-3.3-4-6.6-4.1-9.8-0.1c-1.6,2.1-3.2,4.2-4.7,6.4c-1.9,0-3.3,0.6-2.3,2.8
		c1,2.2,2.4,4.1,3.7,6.2c6.7,10.6,13.5,21.1,20.3,31.7c-0.9,2.6-0.7,5.3-0.7,7.9c0,7.2,0,14.4,0,21.6c0,1.8,0.4,3.7-1.6,5.8
		c-5.5,0.9-11.6,0.1-17.7,0.5c-0.3-1.6-0.6-3.1-0.8-4.7c-0.8-11.4-5.7-20.9-13.3-29.3c-2.3-2.6-4.6-5.2-6.6-8
		c-18.1-25.4-16.1-64.1,10.6-87c18.2-15.6,43.6-18.8,65.1-8c3.1,1.6,6.1,3.3,9.1,4.9c1,1.4,2.2,2.7,3.9,3.4c1.4,1.6,2.8,3.2,4.3,4.7
		C154.6,38.9,159,67,148,91c-1.3,2.9-2.8,5.7-4.2,8.6C143.4,100.2,143.1,100.8,142.7,101.4z"/>
	<path class="st1" d="M64.3,143.4c6.1-0.4,12.2,0.3,17.7-0.5c2-2,1.6-4,1.6-5.8c0.1-7.2,0-14.4,0-21.6c0-2.7-0.2-5.3,0.7-7.9
		c1,0.8,2,2,3.3,1.1c1.3-0.9,0.2-2.3,0.1-3.5c0-0.3-0.1-0.5-0.2-0.7c3.6-0.7,7.2-0.9,10.8,0.2c-0.1,1.4-1.5,2.9,0.3,4
		c1,0.6,1.8-0.4,2.7-0.8c1.1,2.5,0.8,5.2,0.8,7.9c0,6.6,0,13.3,0,19.9c0,2.1-0.4,4.3,1.1,6.7c5.9,1.7,12.2,0.4,18.5,0.9
		c0.1,13.8,0.2,27.7,0.2,41.5c0,1-0.7,1.9-1,2.9c-18.7,0-37.3,0-56-0.1c-0.3-0.7-0.8-1.5-0.8-2.2C64,171.5,63.5,157.4,64.3,143.4z"
		/>
	<path class="st2" d="M158.1,127.2c2.9-0.8,5.3-0.9,8,0c2.3,2.1,2.2,6.2,6,7.7c3.9,1.6,6.6-0.8,9.6-1.7c3.1,0.8,4.4,3.2,6.1,4.8
		c0.8,3.8-2.5,6.7-0.9,10.4c1.6,3.8,5.2,4.3,8,5.9c1.6,2.6,1.2,5.2,0.7,8.2c-2.2,2.6-6.6,2.6-8.1,6.9c-1.4,4,1.9,6.5,1.7,10
		c-1.3,2.4-3.1,4.3-5.4,5.6c-9.4-3-11.1-3.1-16,7c-2.5,1-5.1,1.1-7.7,0.4c-6.3-10.9-7.7-9-16.5-6.5c-2.6-0.9-4.3-2.8-5.6-5.3
		c-0.4-3.4,2.8-6.1,1-10c-1.8-3.8-5.6-3.8-8.3-6.1c-0.2-0.9-0.5-1.9-0.5-3c0-1.6,0.2-3.2,0.2-4.7c2.4-2.6,6.5-2.6,7.9-6.6
		c1.3-3.8-1-6.7-1.6-9.5c1.1-3.2,3.2-4.7,5.3-6.4c3.5,0.1,6.4,2.8,10.2,1.2C155.9,133.9,155.8,130,158.1,127.2z M176.7,160
		c0.1-7.5-5.9-13.9-13.3-14.2c-7.4-0.3-13.9,5.7-14.2,13.2c-0.3,8.1,5.6,14.4,13.6,14.4C170.4,173.5,176.6,167.6,176.7,160z"/>
	<path class="st3" d="M36.6,186c-1.9,1.1-4,1.4-6.5,1.1c-0.5-0.5-1.4-1.1-2.1-1.8c-4.7-5.3-5.7-5.6-12.3-3c-0.7,0.3-1.5,0.5-2.1,0.7
		c-2.7-0.5-4.3-2.3-5.9-4.3c0-0.6-0.1-1.4,0-2.2c1.6-8,1.4-8.6-5.7-12.6c-0.4-0.3-0.8-0.7-1.3-1.1c-1.1-2.2-0.8-4.6-0.2-6.9
		c0.4-0.4,0.7-1,1.1-1.2c5.8-2.1,8.6-5.5,7.2-12.2c-0.9-4.2,3.7-7.5,7.7-6.1c0.7,0.3,1.4,0.7,2.2,1c3.6,1.6,6.7,1,9.3-2
		c0.9-1,1.7-2,2.1-2.5c1.9-1.2,3.2-0.8,4.5-0.5c1,0.3,2,0.6,3.1,0.9c0.4,0.7,1,1.4,1.2,2.1c2.1,8,2.5,8.4,10.6,9.1
		c0.5,0,1,0.2,1.6,0.3c0.4,0.3,1,0.6,1.2,1c0.9,1.6,1.7,3.3,2.5,4.8c-0.4,0.9-0.5,1.8-1,2.4c-4.9,6.6-5,7.5-0.1,14.6
		c0.1,0.2,0.2,0.5,0.3,0.7c0.4,1.4-0.2,2.6-0.8,3.8c-0.6,1.1-1.4,2.2-2,3.1C40.9,176.1,40.9,176.1,36.6,186z M16.5,159.6
		c-0.1,6,5.1,11.2,11.1,11.2c5.6,0,10.7-4.8,11-10.5c0.3-6-4.7-11.4-10.7-11.5C21.8,148.5,16.6,153.5,16.5,159.6z"/>
	<path class="st4" d="M64.8,187.7c18.7,0,37.3,0,56,0.1c-2.2,2.1-5.1,2.7-7.7,3.9c-3.1,1.5-6.2,2.9-9.1,4.7
		c-7.3,4.7-15,4.8-22.3-0.1c-2.7-1.8-5.5-3-8.4-4.4C70.4,190.6,67.2,190.1,64.8,187.7z"/>
	<path class="st1" d="M62.7,67c1.6-2.1,3.1-4.3,4.7-6.4c3.2-4,6.5-3.9,9.8,0.1c1.6,2,2.3,4.9,5.3,5.5c1.8-0.2,2.7-1.6,3.6-2.9
		c0.9-1.3,1.7-2.7,2.8-3.8c2.3-2.4,5.4-2.5,7.7,0c1.6,1.7,2.8,3.8,4.3,5.7c1.1,1.3,3,1.3,4.2,0c1.3-1.6,2.4-3.5,3.8-5.1
		c2.8-3.2,6-3.3,8.8,0c1.9,2.2,3.5,4.7,5.2,7c-0.5,0.6-0.9,1.2-1.4,1.8c-2.9-1.7-3.9-5-6.1-7.3c-1.1-1.2-3.3-1.3-4.3,0
		c-1.3,1.7-2.4,3.5-3.7,5.2c-2.5,3.1-6.4,3.1-8.9,0c-1.3-1.6-2.4-3.5-3.7-5.2c-1-1.2-3.2-1.2-4.2,0c-1.3,1.6-2.4,3.5-3.7,5.1
		c-2.6,3.1-6.3,3-8.9-0.1c-1.2-1.4-2-3.1-3.1-4.6c-1.5-2-3.7-1.9-5.3,0.2c-1.8,2.3-2.9,5.1-5.6,6.6C63.6,68.3,63.2,67.7,62.7,67z"/>
	<path class="st4" d="M62.7,67c0.4,0.6,0.8,1.2,1.3,1.8c7.3,11.3,14.5,22.6,21.8,34c0.4,0.6,1.1,1.1,1.7,1.7
		c0.1,0.2,0.1,0.5,0.2,0.7c0.2,1.2,1.3,2.5-0.1,3.5c-1.3,0.9-2.3-0.3-3.3-1.1C77.6,97.1,70.8,86.5,64.1,76c-1.3-2-2.7-4-3.7-6.2
		C59.4,67.7,60.8,67,62.7,67z"/>
	<path class="st4" d="M121.6,68.9c0.5-0.6,0.9-1.2,1.4-1.8c1.4,0,2.9,0.4,2.3,2.2c-0.7,1.9-1.8,3.8-2.9,5.5
		c-5.7,8.8-11.5,17.6-17.2,26.4c-1.4,2.2-2.6,4.5-4,6.8c-0.9,0.3-1.7,1.4-2.7,0.8c-1.8-1.1-0.4-2.7-0.3-4
		C106.6,93.2,114.4,81.2,121.6,68.9z"/>
	<path class="st0" d="M121.6,68.9c-7.2,12.3-15,24.2-23.3,35.8c-3.6-1.1-7.2-0.9-10.8-0.2c-0.6-0.5-1.3-1-1.7-1.7
		c-7.3-11.3-14.5-22.6-21.8-34c2.7-1.5,3.8-4.3,5.6-6.6c1.6-2.1,3.8-2.1,5.3-0.2c1.1,1.5,2,3.2,3.1,4.6c2.5,3.1,6.3,3.1,8.9,0.1
		c1.4-1.6,2.4-3.5,3.7-5.1c1-1.3,3.2-1.3,4.2,0c1.3,1.6,2.4,3.5,3.7,5.2c2.5,3,6.3,3,8.9,0c1.4-1.6,2.4-3.5,3.7-5.2
		c1-1.2,3.2-1.2,4.3,0C117.7,64,118.7,67.2,121.6,68.9z"/>
	<path class="st1" d="M176.7,160c-0.1,7.6-6.2,13.5-13.9,13.5c-8,0-14-6.3-13.6-14.4c0.3-7.5,6.8-13.5,14.2-13.2
		C170.8,146.1,176.8,152.5,176.7,160z"/>
	<path class="st1" d="M16.5,159.6c0.1-6.1,5.3-11,11.4-10.9c6,0.2,11.1,5.6,10.7,11.5c-0.3,5.7-5.4,10.5-11,10.5
		C21.6,170.8,16.4,165.6,16.5,159.6z"/>
</g>
<rect id="_x3C_スライス_x3E__2_" x="-70.4" y="-7.3" class="st5" width="297.1" height="325.5"/>
</svg>
