<?xml version="1.0" encoding="utf-8"?>
<!-- Generator: Adobe Illustrator 19.1.0, SVG Export Plug-In . SVG Version: 6.00 Build 0)  -->
<svg version="1.1" id="レイヤー_1" xmlns="http://www.w3.org/2000/svg" xmlns:xlink="http://www.w3.org/1999/xlink" x="0px"
	 y="0px" viewBox="0 0 143.7 200" style="enable-background:new 0 0 143.7 200;" xml:space="preserve">
<style type="text/css">
	.st0{display:none;fill:none;}
	.st1{fill:#C14E66;}
	.st2{fill:#93D3E1;}
	.st3{fill:#ECECEB;}
	.st4{fill:#EC9B2F;}
	.st5{fill:#75756E;}
	.st6{fill:#4B8FB4;}
</style>
<rect id="_x3C_スライス_x3E__2_" x="-125.1" y="-158.4" class="st0" width="297.1" height="325.5"/>
<g>
	<path class="st1" d="M99.9,106.9c12,20.1,23.9,40.3,35.9,60.4c2.3,3.9,4.5,7.8,6.9,11.6c1.7,2.7,1.3,4.9-0.8,7.1
		c-6.5,6.9-14.4,11.4-23.6,13.8c-2.6,0.7-4.6-0.1-6-2.6c-0.8-1.4-1.7-2.8-2.5-4.3c-12.2-20.6-24.3-41.1-36.5-61.7
		c-1.3-2.2-3.2-4.2-3.2-7c3-1.7,6.5-0.4,9.8-1.1c2-7.6,7.5-9.2,14.5-8C95.5,111.6,97.2,108.8,99.9,106.9z"/>
	<path class="st2" d="M67.5,52.6c0.6,3.1,0.9,5.9-1.5,8.6c-1.8,1.9-3.5,3-6.1,2.1c-2.3-0.9-4.6-0.8-6.7,0.6
		c-1.8,1.2-3.4,2.6-3.5,4.9c-0.1,2.1-0.7,4.1-1.7,6c0,0-0.5,0-0.5,0c-0.9-0.4-1.6-0.3-2.1,0.6l0.1-0.1c-2.4,0-4.8,0-7.3-0.1l0.1,0.1
		c0.1-1.3-0.3-2.4-1.6-2.9l0,0.2c0.1-1.6-0.5-2.9-1.9-3.5c-2.2-1-4.6-1.3-6.9-0.2c-0.8,0.4-1.5,1.1-2.3,1.6
		c-3.2,2.2-6.8,1.7-9.3-1.2c-1.2-1.4-1-3.1-0.9-4.7c0.2-2.5-0.4-4.6-2.3-6.4c-1.4-1.4-2.9-2.4-5-2.3c-1.4,0.1-2.8,0-4.3,0
		c-2.3-2.2-2.9-4.9-3.5-7.3c0.5-2.2,2-3.1,3-4.4c2.7-3.3,2.7-7.2,0.1-10.2c-4.4-5-4.4-5-1-11.7c2.9-1.5,6.8-0.3,9.5-3.5
		c2.9-3.4,0.4-6.9,1.1-10.2c1.8-2.3,4.1-3.8,7.2-4.3c0.8,0.4,1.6,0.8,2.4,1.3c5.6,3.5,8.8,3,12.4-2.3c1.5-2.2,3.2-3.2,5.9-3
		c3.2,0.3,5.5,1.3,5.9,4.9c0.3,2.9,2.2,4.6,4.8,5.6c1.6,0.7,3.3,0.9,4.8,0.1c4.1-2,6.8-0.2,9.1,3c0.4,0.6,0.7,1.2,1.1,2
		c0,3.3-3.3,6.1-1.7,10.1c1.6,4,5.5,4.1,8.2,6.2c1.5,4.2,1.2,8-1.6,11.4C67.3,45.2,66.5,48.5,67.5,52.6z M36,56.7
		c10.5,0,19-8.3,19.2-18.8c0.2-10.8-8.4-19.6-19.1-19.5c-10.6,0.1-19,8.3-19.2,18.8C16.7,47.9,25.3,56.6,36,56.7z"/>
	<path class="st3" d="M67.5,52.6c-1-4.1-0.2-7.4,4-9.2c7.1-1.4,7.8-2.3,8-11.4c0.6-1.4,1.9-2,3.2-2.6c1-0.5,2.1-0.9,3.1-1.3
		c3.5,0.7,4.9,4.7,8.9,4.2c3.7-0.4,4.9-3.5,7.3-5.3c3-0.6,5.5,0.7,7.6,1.9c1.1,1.6,0.9,3.1,1.1,4.5c0.7,4,3,6,7.2,6.1
		c0.7,0,1.4-0.2,2.1-0.1c0.7,0,1.4,0.2,2,0.3c2,1.6,2.8,3.8,3.5,6c0,1.7-1.1,2.7-1.9,3.8c-2.9,3.9-2.5,6.9,1,10.4
		c0.8,0.8,1.9,1.4,2.3,3.3c0,2-0.6,4.5-2.3,6.5c-10.5,1.6-11.1,4.4-10.1,11.6c-2.6,2.9-2.6,2.9-7.1,4.3c-3-0.8-4.6-4.6-8.6-4.1
		c-3.6,0.5-4.8,3.6-7.3,5.4c-2.7,0.4-5-0.7-7.4-2c-1.5-2.8-0.1-6.5-3.2-9C78,73.3,75,74.5,72,74.3c-2.3-1.5-3-4-3.9-6.1
		c-0.1-1.9,1.1-2.8,2-3.9c3-4,2.8-6.9-0.9-10.4C68.6,53.4,68,53,67.5,52.6z M96.7,72.4c8.9,0,15.7-6.8,15.7-15.7
		c0-8.6-6.7-15.4-15.2-15.5c-8.8-0.2-16,6.7-16.2,15.4C80.9,65.2,87.9,72.4,96.7,72.4z"/>
	<path class="st3" d="M99.9,106.9c-2.8,2-4.4,4.7-5.4,8.2c-7-1.1-12.5,0.4-14.5,8c-3.3,0.8-6.8-0.6-9.8,1.1c-1.1-1-1.5-2.4-1.8-3.8
		c-2.5-11.8-5.1-23.5-7.5-35.3c-0.2-0.9-0.1-1.9-0.1-2.8c2.1-1.3,4.1-2.5,6.2-3.8c1.4,0.9,2.8,1.7,4,2.7c8.9,7.6,17.7,15.3,26.5,23
		C98.4,105.1,99.1,106,99.9,106.9z"/>
	<path class="st4" d="M47.4,74.7c0,0,0.5,0,0.5,0c1.4,1.2,2.9,2.4,3.9,3.3c1.4,3.2-1.3,5.8,0.1,8.7c1.3,2.7,4.2,2.9,5.9,4.7
		c0.9,1.8,0.4,3.7,0.4,5.2c-0.8,1.5-1.9,1.8-3,2.3c-4,2.1-4.6,3.1-4.1,7.8c0.1,0.9,0.2,1.8,0.3,2.6c-1,2.1-2.6,2.9-4.4,3.9
		c-0.6-0.1-1.3-0.2-1.9-0.5c-5.8-2.9-6.2-2.8-10.7,2.1c-0.3,0.3-0.7,0.6-1.2,0.9c-1.9,0.6-3.6-0.4-5.3-1.1c-0.3-0.4-0.8-0.7-0.9-1.1
		c-1.7-7.2-1.7-7.2-9.3-7.9c-0.2,0-0.4-0.2-0.6-0.3c-1.7-1.2-1.9-3.2-2.9-4.9c0.6-0.9,1-1.7,1.5-2.4c3.3-4.2,3.4-5.3,0.3-9.9
		c-0.4-0.6-0.7-1.2-1-1.8c-0.1-2.1,1.1-3.6,2.3-5.2c2.5-1.3,5.6,0.5,8.1-1.6c2.3-1.8,2.2-4.6,3.1-6.7c2.8-1.6,5.5-2.1,8.2-0.6
		c0,0,0-0.2,0-0.2c-0.3,1.4,0.2,2.4,1.6,2.9c0,0-0.1-0.1-0.1-0.1c3.2,2.5,4.1,2.5,7.3,0.1c0,0-0.1,0.1-0.1,0.1
		C45.9,75.1,46.6,74.9,47.4,74.7z M36,106.2c6.9-0.1,12.5-6,12.2-13c-0.2-6.6-5.9-12.1-12.5-12c-6.9,0.1-12.5,6-12.2,13
		C23.8,100.9,29.4,106.3,36,106.2z"/>
	<path class="st5" d="M67,78.5c-2.1,1.3-4.1,2.5-6.2,3.8c-2.7-2.5-4-5.8-5.8-8.8c-0.5-0.8-0.7-1.7-0.9-2.7c-0.3-1.7,0.6-3.4,2.1-4.1
		c1.5-0.8,3.4-0.6,4.5,0.8c1.5,1.8,2.8,3.8,4,5.8C65.6,75,66.2,76.8,67,78.5z"/>
	<path class="st6" d="M36,56.7c-10.8,0-19.3-8.8-19.1-19.6c0.2-10.5,8.6-18.7,19.2-18.8c10.7-0.1,19.3,8.7,19.1,19.5
		C55,48.3,46.5,56.7,36,56.7z"/>
	<path class="st6" d="M45.4,75.2c-3.2,2.5-4,2.4-7.3-0.1C40.5,75.2,43,75.2,45.4,75.2z"/>
	<path class="st6" d="M38.2,75.3c-1.4-0.5-1.9-1.5-1.6-2.9C37.9,72.9,38.3,73.9,38.2,75.3z"/>
	<path class="st6" d="M47.4,74.7c-0.7,0.2-1.4,0.4-2.1,0.6C45.7,74.4,46.5,74.2,47.4,74.7z"/>
	<path class="st6" d="M96.7,72.4c-8.8,0-15.8-7.2-15.6-15.9c0.1-8.7,7.4-15.6,16.2-15.4c8.5,0.2,15.1,7,15.2,15.5
		C112.4,65.6,105.5,72.4,96.7,72.4z"/>
	<path class="st6" d="M36,106.2c-6.6,0.1-12.2-5.3-12.5-12c-0.3-7,5.3-12.9,12.2-13c6.6-0.1,12.3,5.4,12.5,12
		C48.5,100.2,42.9,106.1,36,106.2z"/>
</g>
</svg>
