<?xml version="1.0" encoding="UTF-8" standalone="no"?>
<!-- Generator: Adobe Illustrator 19.1.0, SVG Export Plug-In . SVG Version: 6.00 Build 0)  -->
<svg id="レイヤー_1" style="enable-background:new 0 0 238.7 173.5" xmlns="http://www.w3.org/2000/svg" xml:space="preserve" viewBox="0 0 238.7 173.5" version="1.1" y="0px" x="0px" xmlns:xlink="http://www.w3.org/1999/xlink">
<style type="text/css">
	.st0{display:none;fill:none;}
	.st1{fill:#C14E66;}
	.st2{fill:#158D99;}
	.st3{fill:#ECECEB;}
	.st4{fill:#4DBBCA;}
	.st5{fill:#4C5A7F;}
	.st6{fill:none;}
</style>
<rect id="_x3C_スライス_x3E__2_" class="st0" height="325.5" width="297.1" y="-206.3" x="-155.5"/>
	<path class="st1" d="m114.9 140.3c-1.3 0-2.5-0.1-3.8-0.1-12-1.1-22.9-5.2-32.3-12.9-1.5-2.6-3.9-4.3-6.4-5.9l-0.1-0.1c-0.2-1.3-0.9-2.4-2.1-3-2.2-4.1-4.3-8.2-6.5-12.3-0.3-1.7-0.5-3.5-1-5.2-2.6-10-2.3-19.8 0.8-29.6 0.4-1.4 0.7-2.9 1-4.3 1.9-3.1 3.7-6.3 5.6-9.4 1.6-1 2.3-2.6 2.3-4.5l0.1-0.1c2.2-0.4 3.6-1.7 4.6-3.6 6.7-5.6 13.9-10.2 22.5-12.3 3.7-0.9 7.6-1.4 11.3-2.1 1.4-0.1 2.8-0.1 4.2-0.2 12.7 1.3 24.1 5.4 33.8 13.9 1 2 2.6 3.4 4.9 3.9 0 1.5 0.6 2.6 1.9 3.3 2.1 3.7 4.1 7.3 6.2 11 3.8 11.7 5.1 23.5 1.6 35.5-0.2 0.8-0.2 1.8-0.1 2.6 0.3 1.4 1.5 1.6 2.7 1.7 2.4 2.5 2.7 6.6 6.2 8.3 7.1 3.5 13.3 8.6 20.7 11.4 1.8 2.5 4.7 3.6 7.2 5.1 9 5.4 18 10.6 27 15.9 2.1 1.2 4.1 2.4 6.1 3.7 5.9 3.9 6.7 6.7 3.2 12.6-1.5 2.6-3.2 5.1-5.1 7.3s-4.6 2.8-7.3 1.4c-2.1-1.1-4.1-2.4-6.1-3.8-10.1-7-20.1-14-30.2-20.9-2.2-1.5-4.5-2.9-6.8-4.3-1.4-1.8-3.4-2.9-5.4-3.9-0.7-1.3-1.9-1.7-3.2-1.8-5.2-4.9-10.6-9.5-18.4-9.5-1.6-1.2-2.9-3.3-5.4-1.8-9.6 8.5-21 12.9-33.7 14zm-21.8-84.5l0.2-0.2c-1.7-0.3-3.1 0.3-3.7 2l0.2-0.1c-4.6 1.8-7.2 5.6-9.3 9.8-8 12.6-8.1 25.4-1.2 38.5 9.9 19.8 33.8 24.9 50.5 17.1 1.3-0.6 2.8-1.1 2.9-2.9l-0.1 0.1c7.5-2.1 11.6-7.7 14.8-14.2 7.6-13.3 6.6-26.3-1.2-39.1-8.8-13.6-21.5-19.3-37.3-17.9-4.9 0.4-10.1 1.2-13.8 5.2l0.1-0.1c-1.2 0.1-2 0.5-2.1 1.8z"/>
	<path class="st2" d="m63.7 106.1c2.2 4.1 4.3 8.2 6.5 12.3-7.3 1-14.5 3-21.5 3-3.3-2-2.9-5.6-5.1-7.9-2.9 0.8-1 2.8-1 4.2 0.2 3.8-0.4 5.1-2.6 5.8-4 1.3-6.9 0.6-8.7-2.3-0.5-0.7-1-1.5-1.2-2.4-1.5-6.7-6.3-7.9-12.2-7.5-2.4 0.2-4.8 0.1-7.1-0.2-6.1-0.8-9.7-4.4-10.4-10.4-0.3-2.4-0.2-4.8-0.2-7.1 0-5.4 0.2-10.7-0.1-16.1-0.5-8.9 3.5-15.6 15.3-14.8 2.1 0.1 4.2-0.1 6.3 0 3.7 0 6.3-1.4 7.4-5.1 0.4-1.4 1-2.8 1.6-4.2 2.1-4.5 3.5-5.1 8.5-3.6 1.1 0.4 2.1 1.1 2.7 1.4 2.1 3.3-0.2 6.2 0.3 8.9 1.9 0.9 2.2-0.5 2.6-1.5 0.7-2 1.4-3.9 2.8-5.4 2-1.3 4.1-1.1 6.1-0.8 3.5 0.5 7.1 1.1 10.6 1.6 2.5 0.3 4.6 1.1 5.9 3.5-1.9 3.1-3.7 6.3-5.6 9.4-16.6-0.1-33.3-0.2-49.9-0.2-7.9 0-9.7 2-9.8 10.3-0.2 6-0.2 12-0.1 17.9 0.1 10.6 1.3 11.8 11.7 11.9 13.4 0.1 26.8 0 40.1 0 2.4 0 4.8 0.2 7.1-0.7z"/>
	<path class="st2" d="m161.9 67c-2.1-3.7-4.1-7.3-6.2-11 6.3-3 13.3-2.6 20-3.7 2.2-0.4 3.9 1.1 4.9 3.1 0.8 1.5 0.8 3.5 3 4.8 1.7-2.8-1.2-5.7 0.2-8.4 1.1-1.8 3.2-2.3 5.2-2.7 3-0.7 4.6 0 6 2.5 0.6 1 1.2 2.1 1.5 3.2 1.6 5.5 5.6 7.1 10.9 7 3.2-0.1 6.6 0.2 9.8 0.8 4.9 0.9 7.9 4 8.6 9 1.5 10.1 1.4 20.2-0.1 30.2-0.8 5.5-4.6 8.8-10.4 9.3-3.5 0.3-7.1 0.3-10.7 0.2-3.8 0-6 1.8-7.3 5.3-1.2 3.3-2.8 6.6-4.3 9.8-7.5-2.8-13.7-7.9-20.8-11.4-3.5-1.7-3.8-5.7-6.2-8.3 15.5 0 31 0.1 46.5-0.1 6.9-0.1 9.2-2.4 9.3-9.1 0.2-7.1 0.2-14.3 0-21.4-0.2-7.2-2.5-9.4-10-9.4-16.5 0-33.2 0.2-49.9 0.3z"/>
	<path class="st2" d="m72.4 121.4c0.6 7.5 3.2 14.5 5.7 21.5 0.9 2.5 2.4 4.8 2 7.9-2.2 2.7-5.5 3.1-8.7 3.7-2 0.4-4.6 0-6 1.2-4.1 3.2-7.1 1.7-10.2-1.2-6.2-5.7-12.1-11.5-16.5-18.7-1.2-2-2.8-3.9-2.2-6.5 0.9-1.9 2.7-2.3 4.4-2.8 2.2-0.6 4.2 0 5.4 2.1 1.1 1.8 2 3.7 3 5.5s2.1 3.6 4.4 4.2c-0.2 3.1 1.1 5.4 3.5 7.2 0.9 1.5 1.6 3 2.6 4.4 0.5 0.7 1.4 1.1 2.2 0-0.3-2.6-2.1-3.9-4.3-4.9-0.5-2.8-1.7-5.1-4-6.8-1.1-2.8-2.2-5.5-3.1-8.3-1.1-3.2 0-5.3 3.3-5.9 6.2-1 12.3-1.8 18.5-2.6v0z"/>
	<path class="st2" d="m172 34.2c0.8 4.4 4.2 7.9 4.6 12.4-1.6 3-4.4 3.2-7 3.6-5.3 0.9-10.6 1.7-15.9 2.5 0.4-7.6-3.2-14.3-5.3-21.3-0.8-2.8-2.8-5.3-2.3-8.6 2.3-3.1 6-3.2 9.4-3.9 2.3-0.4 3.8 1.2 5.3 2.6 2.4 2.1 4 5.2 7.6 5.7l-0.1-0.1c-0.3 3.2 1.3 5.5 3.7 7.3v-0.2z"/>
	<path class="st2" d="m60.9 23.5c1.9-0.1 3.4-1.2 4.6-2.4 2.4-2.3 5-2.7 8.1-1.8 7.1 1.9 7.8 3 5.3 9.8-2.9 7.8-6 15.4-6.4 23.8l-0.1 0.1c-4.6-0.9-9.2-1.8-13.8-2.6-2.9-0.5-5.8-0.7-8.8-2.8-0.1-5.8 4.7-9.9 5.7-15.2l-0.1 0.1c2.9-2.4 5.4-5 5.5-9.1v0.1z"/>
	<path class="st2" d="m148.9 48.7c-9.7-8.5-21.1-12.7-33.8-13.9-1.6-9.8 2.1-10.5 9.3-11.1 4.4-0.4 8.9-0.7 13.3-1.1 1.9-0.2 3.7 0.3 4.6 2 3.9 7 7.1 14.3 7.4 22.5 0 0.6-0.6 1.1-0.8 1.6z"/>
	<path class="st2" d="m110.9 35c-3.8 0.7-7.6 1.2-11.3 2.1-8.6 2.1-15.8 6.7-22.5 12.3-1-8.5 2.8-15.7 6.2-23 1.1-2.4 3.4-3.3 6-3.2 5.1 0.2 10.2 0.3 15.2 0.9 5.9 0.7 6.9 2.1 6.9 8.2-0.1 0.9-0.4 1.8-0.5 2.7z"/>
	<path class="st2" d="m154.2 128.4c7.8 0 13.2 4.6 18.4 9.5-2.6 3.4-5.9 6.4-5.9 11.2l0.1-0.1-1.9 1.9 0.1-0.1c-0.8 0.3-1.8 0.3-2.5 0.9-5.5 4.4-10.8 3.2-16.2-0.1-0.7-4.6 1.9-8 3.2-11.8 1.3-4 2.1-8.1 4.7-11.4z"/>
	<path class="st2" d="m114.9 140.3c12.7-1.1 24.1-5.5 33.9-13.8 0.8 7.8-2.6 14.4-5.7 21.1-0.9 2-2.8 3.3-5 3.1-6.8-0.6-13.5-1.3-20.3-2.1-1.6-0.2-2.6-1.5-2.8-3.1-0.1-1.7 0-3.4-0.1-5.2z"/>
	<path class="st2" d="m78.8 127.3c9.4 7.7 20.2 11.8 32.3 12.9 0 1.5 0.2 3 0.1 4.4-0.2 2.3-1.4 3.9-3.8 4.2-5.6 0.7-11.2 1.3-16.8 1.9-3.6 0.4-6.5-0.8-7.9-4.4-1.8-4.7-3.5-9.5-5.1-14.2-0.6-1.7-0.3-3.5 1.2-4.8z"/>
	<path class="st2" d="m129.1 170.5c-3.1-0.1-5.6 1.9-8.4 2.7-3.4 0.9-5.5-0.1-5.7-3.4-0.2-4.4-0.1-8.9 0.1-13.3 0.1-1.5 0.9-3.1 2.5-3.3 6.7-1 13.4-1.6 19.3 1.9 1.1 2.7-0.4 4.6-0.7 6.6l0.1-0.1c-1.2 1-1.8 2.2-1.9 3.7l0.1-0.1-1.9 1.9 0.1-0.1-1.9 1.9 0.1-0.1c-0.6 0.5-1.3 1.1-1.8 1.7-0.1 0.1 0 0 0 0z"/>
	<path class="st2" d="m138 14.5c-0.1 2.1-0.1 4.4-2.7 5-5.2 1.1-10.4 2.3-15.8 1.9-2.2-0.2-4.2-1-4.5-3.5-0.5-5.8-1.2-11.7 0.5-17.1 2.5-1.4 4.4-0.7 6.3 0.2 2.7 1.2 5 3 7.2 5s4 4.4 7.1 5l-0.1-0.1c0.1 1.5 0.6 2.8 1.9 3.7l0.1-0.1z"/>
	<path class="st2" d="m96.8 3.8c3.5 0.2 6-2.3 9.2-3 2.7-0.7 5 0.5 5.2 3.2 0.3 4.4 0.2 8.8 0 13.3-0.1 2.3-1.6 3.9-4 4-6.2 0.2-12.2-0.6-18.2-2.6-0.5-3.8 2.9-6.3 2.4-9.6l-0.1 0.1 1.9-1.9-0.1 0.1 1.9-1.9-0.1 0.1c0.7-0.6 1.3-1.3 1.9-1.8z"/>
	<path class="st2" d="m87.8 159.9c0.2-3.2 1.4-5.7 5-6.4 4.7-0.9 9.5-1.3 14.3-0.7 2.4 0.3 3.7 1.7 4.1 4 0.7 3.9 0.3 10.8-1.1 15.8-2.4 1.6-4.6 0.4-6.7-0.7-2.9-1.5-5.6-3.3-8.4-5l0.1 0.1-1.9-1.9 0.1 0.1c-0.9-2.7-2.4-4.9-5.5-5.5v0.2z"/>
	<path class="st2" d="m168.6 27.1c-0.7-3.8-5.1-5.7-5.4-9.7 2.3-2 4.1-1 5.9 0.1 3.6 2.2 6.4 5.2 9.3 8.2 4.1 4.3 7.8 8.9 10.6 14.2 1.3 2.5 1.1 4.6-0.3 5.7-2.4 1.8-6.4 1.7-8.1-0.5-1.4-1.9-2.4-4-3.6-6.1s-2.2-4.2-4.9-4.8l0.1 0.1c0.3-3.2-1.2-5.5-3.7-7.3l0.1 0.1z"/>
	<path class="st2" d="m55.6 32.4c-1.9 0.3-3.1 1.6-4 3.2-1.3 2.3-2.5 4.7-3.8 7-2.9 4.9-4.4 5.2-10.9 2.3-0.9-1.5-0.4-2.9 0.3-4.2 4.9-9.4 12.4-16.5 20.4-23.2 1.4-1.1 3.1-1.9 4.9-0.5 1.3 2.6-1.6 4.2-1.7 6.5l0.1-0.1c-3.3 2.2-5.6 4.9-5.5 9.1l0.2-0.1z"/>
	<path class="st2" d="m91.4 9.1c-1.6 1.7-3.3 3.3-4.8 5.1-4.3 5-9.1 5-14 0-0.4-0.4-0.6-1-0.9-1.5l-0.1 0.1c1.6 0.1 2.8-0.6 3.7-1.9l-0.1 0.1 1.9-1.9-0.1 0.1c2.6 0 4.7-1 5.5-3.7v0.1c3.1 0.3 5.7-1.3 8.5-2.2 2-0.7 4-1.1 5.8 0.4v-0.1l-1.9 1.9 0.1-0.1-1.9 1.9 0.1-0.1-1.9 1.9 0.1-0.1z"/>
	<path class="st2" d="m95 170.5c-2.8 0.3-5.2-0.8-7.7-1.8-2.2-0.9-4.3-2-6.8-1.8l0.1 0.1c-1-2.4-2.9-3.6-5.5-3.7l0.1 0.1c-0.4-1.7-0.7-3.3-1.1-4.9 6.1-3.8 6.9-3.7 13.6 1.3l-0.1-0.1c0.9 2.8 2.4 5 5.5 5.5l-0.1-0.1 1.9 1.9-0.1-0.1c0.2 1.2 0.2 2.4 0.2 3.6z"/>
	<path class="st2" d="m148.8 165.1c-3.1-0.2-5.5 1.5-8.1 2.7-3.1 1.4-6.2 3.1-9.9 2.7l0.1 0.1v-1.9l-0.1 0.1 1.9-1.9-0.1 0.1 1.9-1.9-0.1 0.1c1.2-1 1.8-2.2 1.9-3.7l-0.1 0.1c1.8-0.4 3-1.6 4.1-2.9 2.9-3.5 6.5-3.1 10.3-2 2.6 0.8 2.4 2.8 1.7 4.9l0.1-0.1c-1.9 0.6-3.3 1.7-3.7 3.7l0.1-0.1z"/>
	<path class="st2" d="m136.3 11c-0.5-2.8-2.9-4.5-3.9-7l0.6-0.6c2.7 0 5.1 1.1 7.5 2.2 2.1 0.9 4.2 2 6.6 1.8l-0.1-0.1c0.9 2.6 2.8 3.7 5.5 3.7l-0.1-0.1c0.1 1.4 0.3 2.8 0.4 4.2-5.3 4.9-10 2.4-14.8-0.6l0.1 0.1c0-1.5-0.6-2.8-1.9-3.7l0.1 0.1z"/>
	<path class="st2" d="m175.8 139.7c2 1 3.9 2.1 5.4 3.9-3.1 5.5-7.8 9.6-12.9 13.1-1 0.7-2.3 1.1-3.3 0.5-1.6-0.9-1.3-2.4-0.7-3.9 0.3-0.8 0.5-1.7 0.8-2.5l-0.1 0.1 1.9-1.9-0.1 0.1c2.1-1.2 3.4-3.2 4.8-5.1 1.1-1.7 2.3-3.3 4.2-4.3z"/>
	<path class="st2" d="m71.7 12.6c-1.7 0.4-3.1 1.8-5 1-1.1-1.1-0.8-2.2 0.3-2.9 3.6-2.6 7.4-4.7 11.9-5.1v-0.1c-0.7 1.2-1.3 2.5-1.9 3.7l0.1-0.1-1.9 1.9 0.1-0.1c-1.5 0-2.8 0.6-3.7 1.9l0.1-0.2z"/>
	<path class="st2" d="m152.3 161.6c2.5 0.6 4.8-2.5 8-0.3-2.9 3.8-6.7 5.6-11.2 6.7-0.1-1.3-0.2-2.2-0.3-3l-0.1 0.1c2-0.5 3.4-1.5 3.7-3.7l-0.1 0.2z"/>
	<path class="st2" d="m77.1 166.9c-7.6-1.6-7.8-1.7-10.7-6.3 3.8-1.2 5.8 2.6 8.9 2.9l-0.1-0.1c0.6 1.1 1.2 2.4 1.9 3.5z"/>
	<path class="st2" d="m150.6 7.3c5.8 1.2 5.8 1.2 9.4 5-0.3 1-1.2 1.3-2 1-1.9-0.7-3.7-1.6-5.6-2.5l0.1 0.1c-0.7-1.1-1.3-2.3-1.9-3.6z"/>
	<path class="st2" d="m147 7.4v-1.9 0.1c1.4 0.2 2.7 0.5 3.6 1.7-1.2 0-2.4 0-3.6 0.1z"/>
	<path class="st2" d="m80.6 166.9v1.9l0.1-0.1c-1.4-0.3-2.7-0.6-3.6-1.8l-0.1 0.1c1.3 0 2.5 0 3.6-0.1 0.1 0.1 0 0 0 0z"/>
	<path class="st2" d="m78.9 5.6c1.2-1.1 2.4-0.9 3.6 0v-0.1c-1.2 0-2.5 0-3.6 0.1-0.1-0.1 0 0 0 0z"/>
	<path class="st2" d="m147.1 5.5s-0.1 0.1 0 0c-0.1 0.1 0 0 0 0z"/>
	<path class="st2" d="m130.9 170.5h-1.8v0.1c0.5 0 1.2 0 1.8-0.1z"/>
	<polygon points="94.9 170.6 95.2 170.8 95 170.5" class="st2"/>
	<path class="st2" d="m80.6 168.8s0.1-0.1 0 0c0.1-0.1 0 0 0 0z"/>
	<path class="st2" d="m132.4 4c-0.1-0.2-0.2-0.3-0.3-0.5 0.3 0 0.6 0 0.9-0.1-0.1 0-0.6 0.6-0.6 0.6z"/>
	<path class="st3" d="m146.1 66.8c7.8 12.8 8.8 25.8 1.2 39.1h-68.1c-6.9-13.1-6.8-25.9 1.2-38.5 4 0.2 8.1 1.2 12.7-1.5-2.4-2.6-3.5-5.2-3.4-8.3l-0.2 0.1c1.9 0.5 3-0.4 3.7-2l-0.2 0.2c1.1-0.1 2-0.5 2-1.8l-0.1 0.1c2.8 0.8 5.2-1 7.7-1.6 5.8-1.4 11.6-2.7 17.6-0.6 0.8 0.3 1.4 1 2 1.5-0.1 2.9-0.2 5.5-3.4 7.3-3.1 0-6.7-0.3-10.2 0.1-3.7 0.4-7.6 1-9.6 5.1 2 1.9 4.1 1.8 6.1 1.8h35.7c1.8-0.2 3.6-0.7 5.3-1z"/>
	<path class="st3" d="m63.7 106.1c-2.3 1-4.7 0.7-7 0.7-13.4 0-26.8 0.1-40.1 0-10.6-0.1-11.7-1.3-11.8-11.9 0-5.9-0.1-11.9 0-17.8 0.1-8.3 1.9-10.3 9.8-10.3 16.6-0.1 33.3 0.1 49.9 0.2-0.3 1.4-0.5 2.9-1 4.3-3.1 9.8-3.5 19.7-0.8 29.6 0.5 1.7 0.7 3.4 1 5.2z"/>
	<path class="st3" d="m161.9 67c16.7-0.1 33.4-0.2 50-0.2 7.5 0 9.8 2.2 10 9.4 0.2 7.1 0.2 14.3 0 21.4-0.2 6.8-2.4 9-9.3 9.1-15.5 0.2-31 0.1-46.5 0.1-1.2-0.1-2.4-0.4-2.7-1.7-0.2-0.8-0.2-1.8 0.1-2.6 3.5-12 2.2-23.8-1.6-35.5z"/>
	<path class="st4" d="m79.2 105.9h68.1c-3.2 6.6-7.4 12.1-14.8 14.2-0.4-2.6-0.6-5.4-4.5-6.6-4.9 2.6-10.7 3.3-16.3 3.9-1.8 2.1-2.3 3.9-0.5 6.1 4.3 1.1 8.6 0.2 12.9-1 2.9-0.8 5.4-2.7 8.5-2.5-0.1 1.9-1.7 2.3-2.9 2.9-16.7 7.9-40.6 2.8-50.5-17z"/>
	<path class="st4" d="m146.1 66.8c-1.8 0.3-3.5 0.8-5.3 0.8-11.9 0.1-23.8 0.1-35.7 0-2 0-4.1 0.1-6.1-1.8 2-4.1 5.9-4.6 9.6-5.1 3.5-0.4 7.1-0.1 10.2-0.1 3.2-1.8 3.4-4.5 3.4-7.3-0.6-0.5-1.3-1.2-2-1.5-5.9-2.1-11.8-0.8-17.6 0.6-2.6 0.6-4.9 2.4-7.7 1.6 3.7-4.1 8.9-4.8 13.8-5.2 16-1.3 28.7 4.4 37.4 18z"/>
	<path class="st4" d="m89.8 57.6c-0.2 3 1 5.7 3.4 8.3-4.6 2.8-8.7 1.7-12.7 1.5 2.1-4.2 4.6-8 9.3-9.8z"/>
	<path class="st5" d="m175.8 139.7c-1.9 1-3.1 2.6-4.3 4.3-1.4 1.9-2.7 3.9-4.8 5.1 0-4.7 3.3-7.8 5.9-11.2 1.4 0.1 2.5 0.5 3.2 1.8z"/>
	<path class="st4" d="m93.3 55.7c-0.7 1.6-1.9 2.5-3.7 2 0.7-1.7 2-2.3 3.7-2z"/>
	<path class="st4" d="m95.1 54c0 1.3-0.9 1.7-2 1.8 0.1-1.3 0.9-1.7 2-1.8z"/>
	<path class="st5" d="m57.8 145.1c2.2 1 4 2.3 4.3 4.9-0.8 1-1.7 0.7-2.2 0-1-1.4-1.8-2.9-2.6-4.4-0.1 0 0.5-0.5 0.5-0.5z"/>
	<path class="st5" d="m53.8 138.2c2.3 1.7 3.5 4.1 4 6.8l-0.6 0.5c-2.4-1.8-3.7-4.2-3.5-7.2-0.1 0 0.1-0.1 0.1-0.1z"/>
	<path class="st5" d="m168.5 27c2.5 1.8 3.9 4.1 3.7 7.3-2.4-1.8-4-4.1-3.7-7.3z"/>
	<path class="st5" d="m55.5 32.5c-0.2-4.2 2.2-6.9 5.5-9.1 0 4.1-2.6 6.7-5.5 9.1z"/>
	<path class="st5" d="m166.8 149l-1.9 1.9c0.6-0.7 1.3-1.3 1.9-1.9z"/>
	<path class="st5" d="m136.3 161.5c-0.1 1.5-0.7 2.8-1.9 3.7 0.1-1.5 0.7-2.7 1.9-3.7z"/>
	<path class="st5" d="m130.9 170.6h-1.9l1.9-1.9v1.9z"/>
	<path class="st5" d="m132.7 166.9l-1.9 1.9 1.9-1.9z"/>
	<path class="st5" d="m134.5 165.1l-1.9 1.9 1.9-1.9z"/>
	<path class="st5" d="m136.2 10.9c1.2 0.9 1.8 2.2 1.9 3.7-1.3-1-1.8-2.2-1.9-3.7z"/>
	<path class="st5" d="m93.1 7.4l1.9-1.9c-0.6 0.6-1.2 1.3-1.9 1.9z"/>
	<path class="st5" d="m91.3 9.2l1.9-1.9c-0.6 0.6-1.2 1.3-1.9 1.9z"/>
	<path class="st5" d="m94.9 5.6l1.9-1.9c-0.6 0.6-1.2 1.3-1.9 1.9z"/>
	<path class="st5" d="m93.3 165.2c-3.1-0.5-4.6-2.7-5.5-5.5 3 0.6 4.5 2.8 5.5 5.5z"/>
	<path class="st5" d="m95.1 167l-1.9-1.9c0.6 0.6 1.2 1.3 1.9 1.9z"/>
	<path class="st5" d="m78.8 5.5h3.7c-0.8 2.7-2.9 3.6-5.5 3.7 0.6-1.2 1.2-2.5 1.8-3.7z"/>
	<path class="st5" d="m71.6 12.8c0.9-1.3 2.2-1.9 3.7-1.9-0.9 1.3-2.1 1.9-3.7 1.9z"/>
	<path class="st5" d="m75.2 11l1.9-1.9c-0.6 0.6-1.2 1.3-1.9 1.9z"/>
	<path class="st5" d="m80.7 167h-3.7c-0.6-1.2-1.2-2.5-1.8-3.7 2.6 0.1 4.5 1.3 5.5 3.7z"/>
	<path class="st5" d="m152.4 161.5c-0.3 2.2-1.7 3.2-3.7 3.7 0.5-2 1.9-3.1 3.7-3.7z"/>
	<path class="st5" d="m146.9 7.3h3.7c0.6 1.2 1.2 2.4 1.9 3.6-2.7 0.1-4.7-1-5.6-3.6z"/>
	<path class="st3" d="m132.6 120c-3.1-0.2-5.6 1.7-8.5 2.5-4.3 1.2-8.6 2.1-12.9 1-1.8-2.2-1.3-4.1 0.5-6.1 5.6-0.5 11.5-1.3 16.3-3.9 3.9 1.2 4.1 4 4.5 6.6l0.1-0.1z"/>
<rect id="_x3C_スライス_x3E__1_" class="st6" height="196.1" width="272.7" y="3.9" x="-31.2"/>
</svg>
